<svg id="Camada_1" data-name="Camada 1" xmlns="http://www.w3.org/2000/svg" viewBox="0 0 515.97 160.48"><defs><style>.cls-1{fill:#4b5b69;}.cls-2{fill:#bfd1dc;}.cls-3{fill:#486870;}.cls-4{fill:#5b818e;}.cls-5{fill:#9bc3cc;}.cls-6{fill:#79a4b8;}.cls-7{fill:#cee3ed;}.cls-8{fill:#ddbb6f;}.cls-9{fill:#efdb8b;}.cls-10{fill:#fff;}</style></defs><title>DESENCALHEI-LOGO</title><path class="cls-1" d="M347.12,515.73a1.91,1.91,0,0,1-.5,1.5,2.7,2.7,0,0,1-1.4.89l-.49.1L324.52,523a83.4,83.4,0,0,1-5.13,13.39,67.43,67.43,0,0,1-6.91,11.3,79,79,0,0,1-12.15,12.24,75,75,0,0,1-14.63,9.26,76.71,76.71,0,0,1-13.89,5.27,58.66,58.66,0,0,1-13.49,2.09c-2.19,0-4.34-.1-6.47-.3a22.61,22.61,0,0,1-5.67-1.19q-5.48-2-7.17-5.77-3.37-6.87.7-13.84t16.12-13.64a179,179,0,0,1,26.48-10.95c4-1.32,8.08-2.6,12.3-3.83s8.47-2.4,12.79-3.53c.66-2.13,1.23-4.27,1.69-6.42s.86-4.4,1.2-6.72a83.76,83.76,0,0,0,.79-21.25,37.73,37.73,0,0,0-5.17-16.38,25.65,25.65,0,0,0-8.91-8.86A24.58,24.58,0,0,0,286,460.59a28.75,28.75,0,0,0-11.6,1.84,31.13,31.13,0,0,0-10.55,6.62,47.06,47.06,0,0,0-7,8.11,68.45,68.45,0,0,0-5.37,9.36,70.43,70.43,0,0,0-3.74,9.5,51.4,51.4,0,0,0-1.94,8.61,24.42,24.42,0,0,0-.05,6.77,5.76,5.76,0,0,0,1.94,3.93c1.06.8,1.38,1.65,1,2.54a4.6,4.6,0,0,1-2.49,2.14,9.2,9.2,0,0,1-4.38.6,7.85,7.85,0,0,1-4.73-2.19,13.23,13.23,0,0,1-4.08-8.36,29.55,29.55,0,0,1,1-11.55,52,52,0,0,1,5.67-13,59.91,59.91,0,0,1,10-12.54,63.06,63.06,0,0,1,13.94-10.1A55.51,55.51,0,0,1,281.12,457a61.1,61.1,0,0,1,21.25-.05,29.9,29.9,0,0,1,15.93,8.17q6.31,6.31,8.86,17.42t.15,27.62c-.2,1.53-.45,3-.75,4.43s-.61,2.84-.95,4.23l19-4.48.4-.1a1.88,1.88,0,0,1,1.54.25A1.23,1.23,0,0,1,347.12,515.73ZM242.7,567a8.35,8.35,0,0,0,3.83,4.08,12.21,12.21,0,0,0,5.42,1.19,24.66,24.66,0,0,0,6.32-.89,56.07,56.07,0,0,0,6.52-2.19q3.19-1.31,6-2.74c1.85-1,3.45-1.84,4.77-2.64a74.69,74.69,0,0,0,18.57-15.18,63.52,63.52,0,0,0,12-20.85q-6.06,1.59-11.89,3.33t-11.3,3.54q-33.35,11-39.82,22.29A10.1,10.1,0,0,0,242.7,567Zm12.94-41.41q-.81-2.39.44-6.87a84.34,84.34,0,0,1,3.49-9.86q2.24-5.37,5-11t5-10.51a83.5,83.5,0,0,0,3.39-8.21c.76-2.25.88-3.65.35-4.18-.34-.26-.27-.58.19-.95a5.69,5.69,0,0,1,2-.89,15.4,15.4,0,0,1,2.94-.45,9.87,9.87,0,0,1,3.14.3,5.78,5.78,0,0,1,2.59,1.49,4.94,4.94,0,0,1,1.29,3.09,20.5,20.5,0,0,1-.95,8.16,63.36,63.36,0,0,1-3.58,9q-2.24,4.63-4.88,9.31t-4.92,9.06a79.93,79.93,0,0,0-3.79,8.26,16.33,16.33,0,0,0-1.29,6.87c0,.59-.42,1.17-1.25,1.74a5.19,5.19,0,0,1-3,.84,6.51,6.51,0,0,1-3.49-1.09A6.89,6.89,0,0,1,255.64,525.59Z" transform="translate(-232.74 -416.08)"/><path class="cls-1" d="M382.15,498.61a1.6,1.6,0,0,1,.6,2.19q-1.69,3.58-4,7.52a71.64,71.64,0,0,1-5.28,7.66,64.21,64.21,0,0,1-6.22,6.87A34.32,34.32,0,0,1,360.4,528a21.66,21.66,0,0,1-7.21,2.58,13.14,13.14,0,0,1-7.27-.89A11,11,0,0,1,340.2,525a15.9,15.9,0,0,1-2-6.72,25.21,25.21,0,0,1,.59-7.61,52.38,52.38,0,0,1,7.52-17.52,33.65,33.65,0,0,1,6.22-6.92,23.83,23.83,0,0,1,6.77-4,20,20,0,0,1,7.07-1.3q3.68,0,5.42,1.79a6.45,6.45,0,0,1,1.74,4.68,15.48,15.48,0,0,1-1.59,6.37,27.68,27.68,0,0,1-4.53,6.82,34.44,34.44,0,0,1-7.12,6.07,32,32,0,0,1-9.35,4.14,35,35,0,0,0-1,5.12,22.11,22.11,0,0,0-.1,4.63,9.25,9.25,0,0,0,.95,3.48,3.15,3.15,0,0,0,2.24,1.7,8.42,8.42,0,0,0,4.73-.65,21.75,21.75,0,0,0,5.17-3.14,43.2,43.2,0,0,0,5.18-4.87,70,70,0,0,0,4.78-5.88,66.87,66.87,0,0,0,4-6.12,42.09,42.09,0,0,0,2.74-5.62,1.8,1.8,0,0,1,1-1.1A1.64,1.64,0,0,1,382.15,498.61ZM353,504.88c-.33.73-.6,1.4-.8,2a27,27,0,0,0,9.81-5.72,28.92,28.92,0,0,0,5.72-7.17,14,14,0,0,0,1.94-6.12c0-1.72-.55-2.62-1.74-2.69q-2.69-.09-6.77,5.18A70.82,70.82,0,0,0,353,504.88Z" transform="translate(-232.74 -416.08)"/><path class="cls-1" d="M391.41,528.67l-.1.1a26.44,26.44,0,0,1-4.18,1.7,12.44,12.44,0,0,1-3.38.59,8.55,8.55,0,0,1-6.13-2,9.86,9.86,0,0,1-2.83-4.83,13.1,13.1,0,0,1-.2-5.57,8.21,8.21,0,0,1,1.89-4.28,12.17,12.17,0,0,1,3.58-2.79,4.83,4.83,0,0,1,2.69-.5,3.68,3.68,0,0,1,2,.9,2.49,2.49,0,0,1,.95,2,2.92,2.92,0,0,1-.95,2.19,3,3,0,0,1-2.14.9,3,3,0,0,1-1.69-.55,2.8,2.8,0,0,1-1.1-1.44,8.3,8.3,0,0,0-1.79,3.58,10.21,10.21,0,0,0-.2,4,6.08,6.08,0,0,0,1.55,3.24,4.77,4.77,0,0,0,3.43,1.44,5.74,5.74,0,0,0,2.29-.75,10.3,10.3,0,0,0,3-2.49,17,17,0,0,0,2.73-4.47,19.79,19.79,0,0,0,1.45-6.62,34.2,34.2,0,0,0-.85-9.06,53.17,53.17,0,0,0-4.18-11.65q-1,1.89-2.24,4.13t-2.24,4.23a1.76,1.76,0,0,1-1.19.8,2.36,2.36,0,0,1-1.3-.15,1.5,1.5,0,0,1-.84-.8,1.32,1.32,0,0,1,.14-1.24c.53-1.13,1-2.14,1.5-3s.93-1.74,1.39-2.54.9-1.6,1.3-2.43.82-1.71,1.29-2.64a13.16,13.16,0,0,1-2.29-7.47,9.39,9.39,0,0,1,.35-2.24,9.73,9.73,0,0,1,1.19-2.69,7.51,7.51,0,0,1,2.34-2.28,7.17,7.17,0,0,1,3.88-.95,5.14,5.14,0,0,1,3.64,1.09,4,4,0,0,1,1.24,2.79,8.82,8.82,0,0,1-.69,3.73,22.25,22.25,0,0,1-2.1,4l-.29.59a55.94,55.94,0,0,1,6.22,8.56,41.85,41.85,0,0,1,3.53,7.77,26.19,26.19,0,0,1,1.35,6.87,21.06,21.06,0,0,1-.55,6,92.68,92.68,0,0,0,5.87-7.47,59.28,59.28,0,0,0,4.28-7,1.69,1.69,0,0,1,.9-1,1.72,1.72,0,0,1,1.49.25,1.64,1.64,0,0,1,.85,1.09,1.92,1.92,0,0,1-.15,1.3,61.56,61.56,0,0,1-5.53,9.16q-3.14,4.28-6.92,8.56a49.59,49.59,0,0,1-5.62,5.37,28.27,28.27,0,0,1-6.62,4Z" transform="translate(-232.74 -416.08)"/><path class="cls-1" d="M452.53,498.61a1.61,1.61,0,0,1,.6,2.19q-1.69,3.58-4,7.52a73,73,0,0,1-5.27,7.66,65.29,65.29,0,0,1-6.22,6.87,34.61,34.61,0,0,1-6.82,5.13,21.71,21.71,0,0,1-7.22,2.58,13.11,13.11,0,0,1-7.26-.89,11,11,0,0,1-5.73-4.63,15.9,15.9,0,0,1-2-6.72,24.9,24.9,0,0,1,.6-7.61,52.58,52.58,0,0,1,7.51-17.52,33.94,33.94,0,0,1,6.22-6.92,24,24,0,0,1,6.77-4,20,20,0,0,1,7.07-1.3c2.46,0,4.26.6,5.43,1.79a6.45,6.45,0,0,1,1.74,4.68,15.48,15.48,0,0,1-1.59,6.37,28.26,28.26,0,0,1-4.53,6.82,34.44,34.44,0,0,1-7.12,6.07,32.23,32.23,0,0,1-9.36,4.14,36.36,36.36,0,0,0-1,5.12,21.45,21.45,0,0,0-.1,4.63,9.25,9.25,0,0,0,.94,3.48,3.17,3.17,0,0,0,2.24,1.7,8.41,8.41,0,0,0,4.73-.65,21.8,21.8,0,0,0,5.18-3.14,43.91,43.91,0,0,0,5.17-4.87,70.23,70.23,0,0,0,8.76-12,40.9,40.9,0,0,0,2.74-5.62,1.82,1.82,0,0,1,1.05-1.1A1.64,1.64,0,0,1,452.53,498.61Zm-29.17,6.27c-.33.73-.59,1.4-.79,2a26.89,26.89,0,0,0,9.8-5.72A29,29,0,0,0,438.1,494a14.23,14.23,0,0,0,1.94-6.12c0-1.72-.55-2.62-1.75-2.69q-2.69-.09-6.77,5.18A70.82,70.82,0,0,0,423.36,504.88Z" transform="translate(-232.74 -416.08)"/><path class="cls-1" d="M488.27,493.53a26.94,26.94,0,0,1-1.5,7.12q-1.29,3.74-2.93,7.32t-3.29,6.82a58.33,58.33,0,0,0-2.54,5.62,8.86,8.86,0,0,0-.74,3.83c.09,1,.81,1.45,2.14,1.45a4.46,4.46,0,0,0,2.48-1.45,33.73,33.73,0,0,0,3.49-3.78q1.89-2.34,3.93-5.27t3.83-5.83q1.8-2.88,3.19-5.52a34.15,34.15,0,0,0,2-4.33,1.52,1.52,0,0,1,1-1,2.21,2.21,0,0,1,1.3,0,1.7,1.7,0,0,1,.94.8,1.19,1.19,0,0,1-.05,1.29q-.79,1.69-2.29,4.63t-3.53,6.27q-2,3.35-4.43,6.72a60.85,60.85,0,0,1-4.93,6.17A30.32,30.32,0,0,1,481.2,529a8.78,8.78,0,0,1-5,1.79,5,5,0,0,1-3.38-.94,7.77,7.77,0,0,1-2.29-2.84,13.49,13.49,0,0,1-1.25-4,16,16,0,0,1-.05-4.53,38.18,38.18,0,0,1,1.89-8.06c.93-2.66,1.94-5.19,3-7.62s2.17-4.64,3.23-6.67a40.61,40.61,0,0,0,2.39-5.27,6.87,6.87,0,0,0,.55-3.44c-.16-.79-.94-1.16-2.34-1.09a6.68,6.68,0,0,0-3.08,1.74,44.27,44.27,0,0,0-4.33,4.18q-2.34,2.54-4.73,5.58c-1.6,2-3,4-4.28,5.82q-1.89,3.89-3.93,7.71c-1.37,2.56-2.58,5-3.64,7.22a42,42,0,0,0-2.34,6,5.67,5.67,0,0,0-.05,4c.27.54.05,1.08-.64,1.65a4.38,4.38,0,0,1-2.69.89,6,6,0,0,1-3.39-1,6.89,6.89,0,0,1-2.63-4.08,11.81,11.81,0,0,1,.1-6.27A63.72,63.72,0,0,1,445,511.3q1.69-4.43,3.79-9.05t3.78-8.52a54,54,0,0,0,2.49-6.67c.53-1.85.53-3.05,0-3.58s-.25-.86.64-1.39a7.36,7.36,0,0,1,3.39-.9,8.55,8.55,0,0,1,4.13.9,6,6,0,0,1,3,4,8.14,8.14,0,0,1,.3,2.84,20.66,20.66,0,0,1-.5,3.23q1.89-2.19,3.83-4.18a32.71,32.71,0,0,1,3.93-3.48,22.17,22.17,0,0,1,3.88-2.39,8.55,8.55,0,0,1,3.69-.9,6,6,0,0,1,5.77,3.39C488.33,486.9,488.73,489.89,488.27,493.53Z" transform="translate(-232.74 -416.08)"/><path class="cls-1" d="M523.8,489.06a2.72,2.72,0,0,1,.45-1.5,4.44,4.44,0,0,1,1.14-1.19,1.66,1.66,0,0,0-1.59-1.2,4.63,4.63,0,0,0-3.09,1.25,21.77,21.77,0,0,0-3.63,3.88,52.93,52.93,0,0,0-4,6.27q-2.08,3.74-4.18,8.31a36.88,36.88,0,0,0-2.14,6.37,34.87,34.87,0,0,0-1,6.57,15.34,15.34,0,0,0,.55,5.33,3.45,3.45,0,0,0,2.59,2.64,8.42,8.42,0,0,0,4.73-.65,21.75,21.75,0,0,0,5.17-3.14,43.2,43.2,0,0,0,5.18-4.87,70,70,0,0,0,4.78-5.88,66.87,66.87,0,0,0,4-6.12,42.09,42.09,0,0,0,2.74-5.62,1.65,1.65,0,0,1,1-1.05,1.92,1.92,0,0,1,1.5.15,1.46,1.46,0,0,1,.69,2.09,76.68,76.68,0,0,1-3.93,7.42,70.91,70.91,0,0,1-5.23,7.61,66,66,0,0,1-6.22,6.92,34.87,34.87,0,0,1-6.87,5.28,20.88,20.88,0,0,1-7.26,2.63,13.28,13.28,0,0,1-7.32-.89,10.9,10.9,0,0,1-5.72-4.68,16.26,16.26,0,0,1-2-6.72,25,25,0,0,1,.59-7.56,50.8,50.8,0,0,1,2.19-7.22,53.3,53.3,0,0,1,5.33-10.4,33.94,33.94,0,0,1,6.22-7.07,21.32,21.32,0,0,1,6.77-3.93,20,20,0,0,1,7.07-1.1,16,16,0,0,1,2.54.45,7.48,7.48,0,0,1,2.48,1.15,6.74,6.74,0,0,1,1.95,2.14,6.41,6.41,0,0,1,.79,3.33,4,4,0,0,1-.89,2.89,2.68,2.68,0,0,1-2.19,1,3.22,3.22,0,0,1-2.14-.79A2.58,2.58,0,0,1,523.8,489.06Z" transform="translate(-232.74 -416.08)"/><path class="cls-1" d="M602.64,525.89c-.4-1.2-.29-3.12.34-5.78a88.88,88.88,0,0,1,2.89-9.3c1.29-3.55,2.81-7.39,4.53-11.5s3.5-8.26,5.33-12.44,3.58-8.25,5.27-12.2,3.17-7.48,4.43-10.6,2.19-5.71,2.79-7.76.69-3.29.3-3.69-.25-.86.64-1.39a7.36,7.36,0,0,1,3.39-.9,8.67,8.67,0,0,1,4.13.9,6,6,0,0,1,3,4,10.85,10.85,0,0,1-.3,5.48,78,78,0,0,1-2.69,8.31q-1.8,4.72-4.28,10.3t-5.18,11.25a47.77,47.77,0,0,1,7.12-6.57,12.39,12.39,0,0,1,6.82-2.79,6,6,0,0,1,5.77,3.39c1.26,2.32,1.66,5.31,1.2,8.95a26.94,26.94,0,0,1-1.5,7.12q-1.29,3.74-2.93,7.32c-1.1,2.39-2.19,4.66-3.29,6.82a58.33,58.33,0,0,0-2.54,5.62,9,9,0,0,0-.74,3.83c.1,1,.81,1.45,2.14,1.45a4.51,4.51,0,0,0,2.49-1.45,33.75,33.75,0,0,0,3.48-3.78q1.89-2.34,3.93-5.27t3.83-5.83q1.8-2.88,3.19-5.52a34.15,34.15,0,0,0,2-4.33,1.51,1.51,0,0,1,1-1,2.18,2.18,0,0,1,1.29,0,1.76,1.76,0,0,1,.95.8,1.23,1.23,0,0,1,0,1.29q-.81,1.69-2.29,4.63t-3.54,6.27c-1.36,2.23-2.83,4.47-4.43,6.72a62.21,62.21,0,0,1-4.92,6.17,30.75,30.75,0,0,1-5.13,4.58,8.78,8.78,0,0,1-5,1.79,5,5,0,0,1-3.38-.94,7.87,7.87,0,0,1-2.29-2.84,13.49,13.49,0,0,1-1.25-4,16,16,0,0,1,0-4.53,37.6,37.6,0,0,1,1.9-8.06c.92-2.66,1.94-5.19,3-7.62s2.17-4.64,3.24-6.67a43.52,43.52,0,0,0,2.39-5.27,6.84,6.84,0,0,0,.54-3.44c-.16-.79-.94-1.16-2.34-1.09-.86.06-2.1.79-3.73,2.19a48.21,48.21,0,0,0-5.13,5.22c-1.79,2.09-3.55,4.32-5.27,6.67a60.61,60.61,0,0,0-4.18,6.42l-1.3,2.69v.1l-.2.4q-3.18,7.06-5,12t-1,6.47c.27.54,0,1.08-.64,1.65a4.38,4.38,0,0,1-2.69.89,6,6,0,0,1-3.39-1A6.89,6.89,0,0,1,602.64,525.89Z" transform="translate(-232.74 -416.08)"/><path class="cls-1" d="M697.6,498.61a1.61,1.61,0,0,1,.6,2.19q-1.69,3.58-4,7.52a71.53,71.53,0,0,1-5.27,7.66,65.29,65.29,0,0,1-6.22,6.87,34.61,34.61,0,0,1-6.82,5.13,21.71,21.71,0,0,1-7.22,2.58,13.11,13.11,0,0,1-7.26-.89,11,11,0,0,1-5.73-4.63,15.9,15.9,0,0,1-2-6.72,24.9,24.9,0,0,1,.6-7.61,52.58,52.58,0,0,1,7.51-17.52,33.68,33.68,0,0,1,6.23-6.92,23.78,23.78,0,0,1,6.76-4,20,20,0,0,1,7.07-1.3c2.46,0,4.26.6,5.43,1.79a6.45,6.45,0,0,1,1.74,4.68,15.48,15.48,0,0,1-1.59,6.37,28.26,28.26,0,0,1-4.53,6.82,34.44,34.44,0,0,1-7.12,6.07,32.23,32.23,0,0,1-9.36,4.14,36.36,36.36,0,0,0-1,5.12,21.45,21.45,0,0,0-.1,4.63,9.25,9.25,0,0,0,.94,3.48,3.17,3.17,0,0,0,2.24,1.7,8.41,8.41,0,0,0,4.73-.65,21.8,21.8,0,0,0,5.18-3.14,43.14,43.14,0,0,0,5.17-4.87,70.23,70.23,0,0,0,8.76-12,40.9,40.9,0,0,0,2.74-5.62,1.82,1.82,0,0,1,1-1.1A1.64,1.64,0,0,1,697.6,498.61Zm-29.17,6.27c-.33.73-.59,1.4-.79,2a26.89,26.89,0,0,0,9.8-5.72,29,29,0,0,0,5.73-7.17,14.09,14.09,0,0,0,1.94-6.12c0-1.72-.55-2.62-1.75-2.69q-2.68-.09-6.76,5.18A70.33,70.33,0,0,0,668.43,504.88Z" transform="translate(-232.74 -416.08)"/><path class="cls-1" d="M718.8,505.23q-1.49,2.94-3.53,6.27t-4.43,6.72a63.75,63.75,0,0,1-4.93,6.17,30,30,0,0,1-5.13,4.58,8.73,8.73,0,0,1-5,1.79,5.86,5.86,0,0,1-3.44-.79,6.77,6.77,0,0,1-2.34-2.54,11.44,11.44,0,0,1-1.19-4,21.13,21.13,0,0,1,0-5,39.52,39.52,0,0,1,1.54-7c.76-2.45,1.64-4.91,2.64-7.36s2-4.83,3-7.12,1.92-4.36,2.68-6.22a32.2,32.2,0,0,0,1.6-4.68c.29-1.26.21-2.12-.25-2.59s-.25-.86.64-1.39a7.25,7.25,0,0,1,3.34-.9,8.74,8.74,0,0,1,4.13.9,5.94,5.94,0,0,1,3,4,12.4,12.4,0,0,1-.3,7,56.81,56.81,0,0,1-3.34,8.61q-2.15,4.47-4.58,8.86t-4.08,7.81a19.42,19.42,0,0,0-1.89,5.48c-.17,1.36.51,2,2,1.84a5,5,0,0,0,2.54-1.6,41.91,41.91,0,0,0,3.43-3.83Q707,517.92,709,515c1.32-1.93,2.58-3.85,3.78-5.78s2.25-3.75,3.18-5.47a31,31,0,0,0,2-4.28,1.53,1.53,0,0,1,1-1,2.18,2.18,0,0,1,1.29,0,1.72,1.72,0,0,1,.95.8,1.23,1.23,0,0,1,0,1.29Q720.29,502.3,718.8,505.23Z" transform="translate(-232.74 -416.08)"/><polygon class="cls-2" points="458.56 22.85 490.72 22.85 497.31 33.81 474.64 61.6 451.97 33.81 458.56 22.85"/><polygon class="cls-3" points="482.19 33.81 474.64 61.6 497.31 33.81 490.72 22.85 480 22.85 482.19 33.81"/><polygon class="cls-4" points="482.19 33.81 474.64 61.6 497.31 33.81 482.19 33.81"/><polygon class="cls-5" points="451.97 33.81 474.64 61.6 467.08 33.81 469.28 22.85 458.56 22.85 451.97 33.81"/><polygon class="cls-6" points="451.97 33.81 474.64 61.6 467.08 33.81 451.97 33.81"/><polygon class="cls-7" points="467.08 33.81 474.64 61.6 482.19 33.81 467.08 33.81"/><rect class="cls-1" x="507.62" y="36.91" width="8.35" height="5.17"/><rect class="cls-1" x="735" y="433.02" width="8.35" height="5.17" transform="translate(-351.51 11.88) rotate(-30)"/><rect class="cls-1" x="720.39" y="418.4" width="8.35" height="5.17" transform="translate(-235.04 421.9) rotate(-60)"/><path class="cls-8" d="M571.66,501.63c-2.73,5.2-4.59,12.62-5.25,23.13-.16,1.36.52,2,2.05,1.84a5.29,5.29,0,0,0,2.48-1.59,38.82,38.82,0,0,0,3.49-3.83q1.89-2.34,3.93-5.23c1.36-1.92,2.62-3.85,3.78-5.77s2.21-3.75,3.14-5.48a31.61,31.61,0,0,0,2-4.28,1.48,1.48,0,0,1,1-1,2.06,2.06,0,0,1,1.3,0,1.69,1.69,0,0,1,.94.79,1.21,1.21,0,0,1,0,1.3q-.8,1.69-2.29,4.63t-3.53,6.27q-2,3.33-4.43,6.72a63.15,63.15,0,0,1-4.93,6.17,30.76,30.76,0,0,1-5.12,4.58,8.86,8.86,0,0,1-5,1.79,5.76,5.76,0,0,1-5.67-3.09,13.8,13.8,0,0,1-1.4-8.36Z" transform="translate(-232.74 -416.08)"/><path class="cls-8" d="M557.28,483.51s11.19,4.6,6.1,19.3-12.1,22.7-17.1,24.7a20,20,0,0,1-8.56,1.65s15.56,10.35,29.56-16.65-3.39-31.61-6.19-31.81S552.28,481.51,557.28,483.51Z" transform="translate(-232.74 -416.08)"/><path class="cls-9" d="M558.2,486a22.21,22.21,0,0,0-3.69,4,53.77,53.77,0,0,0-4.1,6.37q-2.11,3.78-4.24,8.44A38.78,38.78,0,0,0,544,511.1a30.62,30.62,0,0,0-1,6.47,16.94,16.94,0,0,0,.61,5.4,5,5,0,0,0,2.53,3c2,.85,9.72,1.73,14.54-3.13,0,0-4.58,5.24-9.34,7.25a15.14,15.14,0,0,1-6,1.35A18,18,0,0,1,539,530a11.06,11.06,0,0,1-5.81-4.75,16.44,16.44,0,0,1-2.07-6.83,25.11,25.11,0,0,1,.6-7.68,51,51,0,0,1,2.23-7.33,53.56,53.56,0,0,1,5.41-10.56,34.18,34.18,0,0,1,6.31-7.18,22,22,0,0,1,6.88-4,20.39,20.39,0,0,1,7.18-1.12,14.55,14.55,0,0,1,2.54.39l.2,0a13.13,13.13,0,0,1,5.31,2.63C564.34,483.18,561.05,483.5,558.2,486Z" transform="translate(-232.74 -416.08)"/><path class="cls-10" d="M549.4,485.17a80.21,80.21,0,0,0-6.41,8.2,57.21,57.21,0,0,0-5,8.94,38.81,38.81,0,0,0-1.84,4.77,36.49,36.49,0,0,0-1.26,4.94,41.71,41.71,0,0,0-.56,10.32,26.52,26.52,0,0,1-1-10.54,32.79,32.79,0,0,1,2.82-10.31,41.08,41.08,0,0,1,5.62-9A37.49,37.49,0,0,1,549.4,485.17Z" transform="translate(-232.74 -416.08)"/><path class="cls-1" d="M613.59,500.6q-.81,1.69-2.29,4.63t-3.54,6.27c-1.36,2.23-2.83,4.47-4.43,6.72a62.21,62.21,0,0,1-4.92,6.17,30.75,30.75,0,0,1-5.13,4.58,8.78,8.78,0,0,1-5,1.79,5.83,5.83,0,0,1-3.43-.79,6.77,6.77,0,0,1-2.34-2.54,11.23,11.23,0,0,1-1.2-4,21.13,21.13,0,0,1,0-5,48.58,48.58,0,0,1,2.49-9.26q2.1-6,5-13.09t6.07-14.53q3.18-7.41,5.73-13.64t3.93-10.4c.93-2.79,1.16-4.41.69-4.88s-.24-.86.65-1.39a7.25,7.25,0,0,1,3.34-.9,8.87,8.87,0,0,1,4.13.9,5.93,5.93,0,0,1,3,4c.47,1.46.33,3.6-.4,6.42a81.6,81.6,0,0,1-3.23,9.61q-2.15,5.37-5,11.59t-5.82,12.3q-2.94,6.08-5.58,11.69T592,516.68a27.92,27.92,0,0,0-1.89,6.72c-.16,1.66.32,2.42,1.45,2.29a5,5,0,0,0,2.53-1.6,41.86,41.86,0,0,0,3.44-3.83q1.89-2.34,3.88-5.22c1.33-1.93,2.59-3.85,3.78-5.78s2.26-3.75,3.19-5.47a32.18,32.18,0,0,0,2-4.28,1.51,1.51,0,0,1,1-1,2.18,2.18,0,0,1,1.29,0,1.76,1.76,0,0,1,.95.8A1.23,1.23,0,0,1,613.59,500.6Z" transform="translate(-232.74 -416.08)"/></svg>