<svg id="Camada_1" data-name="Camada 1" xmlns="http://www.w3.org/2000/svg" viewBox="0 0 303.41 303.41"><defs><style>.cls-1{fill:#4b5b69;}</style></defs><title>ÍCONES</title><path class="cls-1" d="M268.37,101.91c-1.63-18.9-9.25-36.18-21.48-48.65A63.49,63.49,0,0,0,201.34,33.8c-21.65,0-42.56,11.45-55.3,30.09C133.89,45,114.09,33.8,92.47,33.8A63.47,63.47,0,0,0,46.93,53.26C34.7,65.73,27.07,83,25.44,101.92c-.57,2.58-1.27,11.74,1.89,26.15,5.08,21.26,16.77,40.75,33.81,56.37l83.5,75.66a2,2,0,0,0,1.35.52,2,2,0,0,0,1.33-.51l84.9-75.67c17-15.62,28.73-35.11,33.8-56.34C269.65,114,269,104.62,268.37,101.91Zm-12.84,3.69a76.18,76.18,0,0,1-2.16,19.7A97.85,97.85,0,0,1,223.54,175l-77.09,68.92L70.29,175A98,98,0,0,1,40.44,125.3c-3.07-13.19-1.83-20.81-1.82-20.88a2,2,0,0,0,0-.34v-.38C41.35,70.85,64,47,92.47,47c20.65,0,39,12.79,48,33.35l4.16,10.15a2,2,0,0,0,1.85,1.24,2,2,0,0,0,1.85-1.24l4.15-10.14A53.4,53.4,0,0,1,201.81,47c28.42,0,50.49,23.16,53.79,56.38A12.6,12.6,0,0,0,255.53,105.6Z"/><path class="cls-1" d="M100.78,61.94a48.19,48.19,0,0,0-48.14,48.13,6.62,6.62,0,1,0,13.23,0,35,35,0,0,1,34.91-34.9,6.62,6.62,0,0,0,0-13.23Z"/></svg>