<svg id="Camada_1" data-name="Camada 1" xmlns="http://www.w3.org/2000/svg" viewBox="0 0 303.41 303.41"><defs><style>.cls-1{fill:#4b5b69;}</style></defs><title>ÍCONES</title><path class="cls-1" d="M247.61,51.39h-61V40.62A10.63,10.63,0,0,0,176,30H133.5a10.62,10.62,0,0,0-10.6,10.62V51.39h-61a5.35,5.35,0,0,0,0,10.69h9.9l6.76,175.79a19.88,19.88,0,0,0,19.94,19.18H211A19.89,19.89,0,0,0,231,237.87l6.75-175.79h9.9a5.35,5.35,0,1,0,0-10.69Zm-114-10.7H175.9v10.7H133.58Zm86.7,196.77a9.24,9.24,0,0,1-9.26,8.91H98.47a9.24,9.24,0,0,1-9.26-8.91L82.47,62.08H227Z"/><path class="cls-1" d="M122.21,110.52a5.35,5.35,0,0,0-5.34-5.24h-.11a5.35,5.35,0,0,0-5.24,5.45l1.68,87.2a5.34,5.34,0,0,0,5.34,5.24h.1a5.35,5.35,0,0,0,5.24-5.45Z"/><path class="cls-1" d="M154.74,105.28a5.34,5.34,0,0,0-5.34,5.34v87.2a5.34,5.34,0,1,0,10.68,0v-87.2A5.34,5.34,0,0,0,154.74,105.28Z"/><path class="cls-1" d="M192.72,105.28a5.34,5.34,0,0,0-5.44,5.24l-1.68,87.2a5.35,5.35,0,0,0,5.24,5.45H191a5.35,5.35,0,0,0,5.34-5.24l1.67-87.2A5.35,5.35,0,0,0,192.72,105.28Z"/></svg>