<svg id="Camada_1" data-name="Camada 1" xmlns="http://www.w3.org/2000/svg" viewBox="0 0 303.41 303.41"><defs><style>.cls-1{fill:#4b5b69;}</style></defs><title>ÍCONES</title><path class="cls-1" d="M271.28,56.09H245.6l-15.84-26.4,0-.07-.14-.21-.11-.15-.14-.17-.15-.16a1.59,1.59,0,0,0-.13-.13l-.17-.16-.14-.11-.18-.14-.17-.11-.17-.1-.21-.11-.15-.07-.24-.1-.14,0-.25-.08-.16,0-.23,0-.19,0-.21,0-.23,0H140.6l-.25,0-.19,0-.21,0-.21,0-.18.05-.23.07-.16,0L139,28l-.16.08-.2.11-.18.1-.16.11-.18.14-.14.11a1.29,1.29,0,0,0-.17.16l-.14.13a1.07,1.07,0,0,0-.14.16,1.15,1.15,0,0,0-.14.17l-.11.15-.15.21-.05.07L121.2,56.09H82.54V43.15a4.25,4.25,0,0,0-4.26-4.25H44.36a4.25,4.25,0,0,0-4.26,4.25V56.09H38.81A21.26,21.26,0,0,0,17.55,77.35V225a21.26,21.26,0,0,0,21.26,21.26H271.28A21.26,21.26,0,0,0,292.55,225V77.37A21.29,21.29,0,0,0,271.28,56.09ZM48.7,47.49H74.48v8.6H48.7ZM271.06,237.63H82.54v-160a4.34,4.34,0,0,0-3.3-4.27,4.29,4.29,0,0,0-5.3,4.14V237.63h-35a12.76,12.76,0,0,1-12.76-12.76V194.66H39a4.3,4.3,0,1,0,.08-8.59H26.14v-14H39a4.3,4.3,0,1,0,.08-8.59H26.14v-14H39A4.3,4.3,0,1,0,39,141H26.14V127H39a4.3,4.3,0,1,0,.08-8.59H26.14V77.44A12.76,12.76,0,0,1,38.9,64.68h85a3.71,3.71,0,0,0,.47,0l.13,0,.37-.07.13,0a2.4,2.4,0,0,0,.38-.12l.09,0a4.71,4.71,0,0,0,.45-.22l.07,0,.34-.22.14-.1.26-.22.12-.11a3.73,3.73,0,0,0,.32-.36l.06-.08.25-.36,0,0,15.76-26.4h80.18l15.76,26.4,0,0c.07.12.16.24.24.36l.06.08q.17.19.33.36l.12.11.26.22.14.1a3.78,3.78,0,0,0,.33.22l.07,0,.45.22.09,0a2.91,2.91,0,0,0,.39.12l.13,0,.37.07.13,0a3.59,3.59,0,0,0,.47,0H271.2A12.75,12.75,0,0,1,284,77.44v147.3h0A12.9,12.9,0,0,1,271.06,237.63Z"/><path class="cls-1" d="M183.39,95.77a58.12,58.12,0,1,0,58.12,58.11A58.18,58.18,0,0,0,183.39,95.77Zm0,107.73A49.62,49.62,0,1,1,233,153.88,49.67,49.67,0,0,1,183.39,203.5Z"/><path class="cls-1" d="M207.53,134.12a19.18,19.18,0,0,0-24.14-2.46,19.2,19.2,0,0,0-24.15,29.61l21.14,21.14a4.27,4.27,0,0,0,6,0l21.13-21.14a19.18,19.18,0,0,0,0-27.15Zm-6,21.14-18.13,18.13-18.13-18.13a10.69,10.69,0,1,1,15.12-15.13,4.26,4.26,0,0,0,6,0,10.69,10.69,0,0,1,15.12,15.13Z"/><path class="cls-1" d="M223,64.13a4.33,4.33,0,0,0,1.56-5.25L220,47.51s0,0,0,0l-.12-.27-.06-.12c0-.08-.09-.15-.13-.22l-.09-.15a1.47,1.47,0,0,0-.1-.13,1.77,1.77,0,0,0-.16-.22l0,0a3.94,3.94,0,0,0-.54-.54l0,0a2.83,2.83,0,0,0-.28-.2l-.31-.19,0,0a4.55,4.55,0,0,0-.72-.3l0,0-.27-.07-.14,0-.19,0-.24,0H150.28l-.26,0-.17,0-.18.05-.23.06-.08,0-.31.11h0l-.35.17-.08.05-.27.16-.28.22,0,0a3.45,3.45,0,0,0-.54.54l-.05,0-.15.21-.1.14a1.3,1.3,0,0,1-.1.15l-.12.22-.06.12-.13.27a0,0,0,0,1,0,0L142.17,59a4.3,4.3,0,1,0,8,3.2l3.5-8.76h59.49l3.51,8.76a4.29,4.29,0,0,0,4,2.7A4.34,4.34,0,0,0,223,64.13Z"/><path class="cls-1" d="M262.78,73.09a12.76,12.76,0,1,0,12.76,12.76A12.77,12.77,0,0,0,262.78,73.09Zm0,17A4.26,4.26,0,1,1,267,85.85,4.26,4.26,0,0,1,262.78,90.1Z"/><path class="cls-1" d="M256.25,135.56a75.13,75.13,0,1,0,0,36.64,18.43,18.43,0,0,0,0-36.64Zm-72.86,84.95a66.63,66.63,0,1,1,65.19-80.39v.09a5.24,5.24,0,0,0,.2.91,66.65,66.65,0,0,1-65.39,79.39ZM258,163.09a74.61,74.61,0,0,0,0-18.41,9.91,9.91,0,0,1,0,18.41Z"/><path class="cls-1" d="M112.61,84.55H95.5a4.3,4.3,0,1,0-.08,8.6h17.11a4.3,4.3,0,1,0,.08-8.6Z"/></svg>