<svg id="Camada_1" data-name="Camada 1" xmlns="http://www.w3.org/2000/svg" viewBox="0 0 303.41 303.41"><defs><style>.cls-1{fill:#4b5b69;}</style></defs><title>ÍCONES</title><path class="cls-1" d="M100.57,183.41H241.9a28.32,28.32,0,0,0,28.28-28.28V95.58a6.31,6.31,0,1,0-12.61,0v59.5a15.67,15.67,0,0,1-15.67,15.66H100.57A15.67,15.67,0,0,1,84.9,155.08V38.81a3.12,3.12,0,0,0-.05-.68V38c0-.15,0-.31,0-.42a.92.92,0,0,0-.11-.37s0-.15,0-.21-.1-.26-.16-.42,0-.1,0-.15-.1-.27-.16-.37,0-.16-.1-.21L84,35.5c-.05-.1-.1-.15-.16-.26s-.1-.16-.15-.21a1.23,1.23,0,0,0-.21-.26l-.16-.16c-.11-.11-.16-.21-.27-.32s-.1-.1-.15-.1a1.22,1.22,0,0,0-.32-.26l-.16-.16c-.1-.05-.21-.16-.31-.21s-.26-.16-.37-.26a.12.12,0,0,1-.1-.11L81,32.87,42.17,16.58A6.3,6.3,0,0,0,37.28,28.2L72.24,43V199.39a28.28,28.28,0,0,0,25.91,28.17,28,28,0,1,0,46.67.11h66.91a28,28,0,1,0,23.39-12.62H100.57A15.67,15.67,0,0,1,84.9,199.39V178.63A28.19,28.19,0,0,0,100.57,183.41ZM136.78,243a15.35,15.35,0,1,1-15.35-15.34A15.36,15.36,0,0,1,136.78,243Zm113.64,0a15.35,15.35,0,1,1-15.35-15.34A15.37,15.37,0,0,1,250.42,243Z"/></svg>