<svg id="Camada_1" style="width: 90px" data-name="Camada 1" xmlns="http://www.w3.org/2000/svg" viewBox="0 0 303.41 303.41"><defs><style>.cls-1{fill:#d3b8bf;}</style></defs><title>ÍCONES</title><path class="cls-1" d="M169.09,84.41a17.49,17.49,0,0,0-35,0,15.73,15.73,0,0,0,.1,1.82,67.19,67.19,0,0,0-30.29,17.51,4.66,4.66,0,1,0,6.59,6.59A57.91,57.91,0,0,1,137.68,95a17.48,17.48,0,0,0,27.87,0,57.93,57.93,0,0,1,27.31,15.39,4.66,4.66,0,1,0,6.59-6.59A67.21,67.21,0,0,0,169,86.19,17.53,17.53,0,0,0,169.09,84.41Zm-10,3.35h0a8.15,8.15,0,0,1-14.87,0,8,8,0,0,1-.73-3.36,8.16,8.16,0,1,1,15.61,3.35Z"/><path class="cls-1" d="M123.5,163.67v7.51a4.75,4.75,0,0,0,4,4.76,4.66,4.66,0,0,0,5.35-4.61v-7.81a4.66,4.66,0,0,0-5.35-4.61A4.75,4.75,0,0,0,123.5,163.67Z"/><path class="cls-1" d="M170.57,163.67v7.51a4.75,4.75,0,0,0,4,4.76,4.66,4.66,0,0,0,5.35-4.61v-7.81a4.66,4.66,0,0,0-5.35-4.61A4.75,4.75,0,0,0,170.57,163.67Z"/><path class="cls-1" d="M160.26,193.56a12.13,12.13,0,0,1-17.14,0,4.66,4.66,0,0,0-6.59,6.59,21.46,21.46,0,0,0,30.32,0,4.66,4.66,0,0,0-6.59-6.59Z"/><path class="cls-1" d="M200,77.07a67.44,67.44,0,0,0-48.34-20.29h0c-29.36,0-55.9,18.41-66.42,49.76a36.39,36.39,0,0,0-1.85,11.57v89.32a15.26,15.26,0,0,0,15.26,15.26h22a56.64,56.64,0,0,0,62,0h22A15.26,15.26,0,0,0,220,207.43V125.66A68.75,68.75,0,0,0,200,77.07ZM118.25,209a47,47,0,0,1-13.86-33.45V145a52,52,0,0,0,30.12-15.28A59.85,59.85,0,0,0,199,148.38v26.69c0,25.61-20.17,47-45.77,47.78A47,47,0,0,1,118.25,209Zm92.4-14.83a19.33,19.33,0,0,1-16.86,19.18,56.54,56.54,0,0,0,14.53-37.89V141.64a4.78,4.78,0,0,0-.85-2.79,4.67,4.67,0,0,0-5.78-1.53,50.45,50.45,0,0,1-63-17.51,4.45,4.45,0,0,0-1.24-1.28,4.68,4.68,0,0,0-6.36,1,42.73,42.73,0,0,1-31.57,16.66,4.68,4.68,0,0,0-4.44,4.66v34.65a56.32,56.32,0,0,0,14.49,37.89,19.34,19.34,0,0,1-16.82-19.18V125.05A58.83,58.83,0,0,1,151.45,66.1h.48a57.84,57.84,0,0,1,41.53,17.53,59.71,59.71,0,0,1,17.19,42.09Z"/><path class="cls-1" d="M176.38,230.64a4.66,4.66,0,0,0-5.35,4.61v9.16c0,10.2-8.31,19.31-18.49,19.87a19.61,19.61,0,0,1-20.66-19.55V235.4a4.75,4.75,0,0,0-4-4.76,4.67,4.67,0,0,0-5.36,4.61v9.48a28.94,28.94,0,0,0,24.24,28.52v3.34a4.76,4.76,0,0,0,4,4.76,4.66,4.66,0,0,0,5.35-4.61v-3.49a28.94,28.94,0,0,0,24.23-28.52v-9.34A4.75,4.75,0,0,0,176.38,230.64Z"/></svg>