<svg id="Camada_1" class="icon-header" style="width: 80px" data-name="Camada 1" xmlns="http://www.w3.org/2000/svg" viewBox="0 0 303.41 303.41"><defs><style>.cls-1{fill:#d3b8bf;}</style></defs><title>ÍCONES</title><rect class="cls-1" x="143.5" y="54.02" width="6.54" height="20.49"/><rect class="cls-1" x="163.49" y="67.43" width="20.56" height="6.6" transform="translate(36.62 198.76) rotate(-65.18)"/><rect class="cls-1" x="116.04" y="60.45" width="6.61" height="20.56" transform="translate(-18.67 56.64) rotate(-24.82)"/><rect class="cls-1" x="100.06" y="120.74" width="6.61" height="5.31" transform="translate(-52.16 164.88) rotate(-64.98)"/><rect class="cls-1" x="107.84" y="131.24" width="6.61" height="5.31" transform="translate(-57.2 177.99) rotate(-64.98)"/><rect class="cls-1" x="110.31" y="156.07" width="6.61" height="5.31" transform="translate(-78.27 194.56) rotate(-64.98)"/><rect class="cls-1" x="83" y="159.85" width="6.61" height="5.31" transform="translate(-97.45 171.99) rotate(-64.98)"/><rect class="cls-1" x="86.92" y="182.32" width="6.61" height="5.31" transform="translate(-115.55 188.51) rotate(-64.98)"/><path class="cls-1" d="M255.38,233.22H233.15l-16.34-35,4.64-6.55a33.77,33.77,0,0,0,3.06-33.78l-32.8-70.28-45.15,21.08L101.4,87.64,68.6,157.92a33.77,33.77,0,0,0,3.06,33.78l4.64,6.55L60,233.66H37.73l-2.79,5.68,42.42,19.8,2.79-6L66,236.06l16.34-35,8-.64A33.81,33.81,0,0,0,118.15,181l28.41-60.87L175,181a33.81,33.81,0,0,0,27.86,19.36l8,.64,16.34,35L213,253.15l2.79,6,42.42-19.8ZM66.13,246.46l-14.37-6.7,8.76,0Zm46-68.21a27.16,27.16,0,0,1-22.4,15.56l-8,.65-4.67-6.58a27.15,27.15,0,0,1-2.46-27.17l24.16-51.77c.29.32.55.66.84,1a15.74,15.74,0,0,0,13.63,6.36,9.16,9.16,0,0,1,8.15,3.8A15.74,15.74,0,0,0,135,126.49c.47,0,.89,0,1.32,0Zm27.08-58a15.2,15.2,0,0,0-4.5-.34,8.22,8.22,0,0,1-4.57-.83,8.32,8.32,0,0,1-3.58-3A15.77,15.77,0,0,0,113,109.73a9.2,9.2,0,0,1-8.15-3.81,15.61,15.61,0,0,0-3.15-3.23l2.93-6.27L142.17,114Zm16.39.94c-.29.37-.55.71-.84,1L151,114l37.57-17.54,3.84,8.24c-.42,0-.85,0-1.32,0A15.71,15.71,0,0,0,177.41,111a8.32,8.32,0,0,1-3.58,3,8.2,8.2,0,0,1-4.57.83,15.77,15.77,0,0,0-13.63,6.36Zm55.76,73.29-8-.65A27.16,27.16,0,0,1,181,178.25L157.7,128.44a15.34,15.34,0,0,0,3.15-3.22,9.14,9.14,0,0,1,8.16-3.81,15.74,15.74,0,0,0,13.62-6.36,9.16,9.16,0,0,1,8.15-3.8,15.91,15.91,0,0,0,4.5-.34l23.24,49.8a27.18,27.18,0,0,1-2.45,27.17Zm15.59,52,5.61-6.74,8.76,0Z"/><rect class="cls-1" x="194.36" y="138.26" width="5.31" height="6.61" transform="translate(-41.38 96.6) rotate(-25.02)"/><rect class="cls-1" x="179.33" y="123.83" width="5.31" height="6.61" transform="translate(-36.69 88.89) rotate(-25.02)"/><rect class="cls-1" x="174.44" y="142.78" width="5.31" height="6.61" transform="translate(-45.16 88.6) rotate(-25.02)"/><rect class="cls-1" x="189.55" y="165.58" width="5.31" height="6.61" transform="translate(-53.39 97.13) rotate(-25.02)"/><rect class="cls-1" x="205.05" y="169.13" width="5.31" height="6.61" transform="translate(-53.43 104.01) rotate(-25.02)"/></svg>