<svg id="Camada_1" style="width: 80px" data-name="Camada 1" xmlns="http://www.w3.org/2000/svg" viewBox="0 0 303.41 303.41"><defs><style>.cls-1{fill:#d3b8bf;}</style></defs><title>ÍCONES</title><path class="cls-1" d="M229.47,200.31l-.15,0-39.51-7v-14.2A72,72,0,0,0,210,134.89,16.36,16.36,0,0,0,222.62,119a16.11,16.11,0,0,0-3.56-10l.54-10.26a58.49,58.49,0,0,0-58.5-61.44H103.9a4.1,4.1,0,0,0-4.1,4.09,40.47,40.47,0,0,0,6.41,21.89,49.67,49.67,0,0,0-5.13,44.92l1,2.66A16.17,16.17,0,0,0,99.8,119a16.37,16.37,0,0,0,12.61,15.86,72,72,0,0,0,20.21,44.17v14.2l-39.79,7.08a28.8,28.8,0,0,0-21.74,27.75v50.33a4.09,4.09,0,0,0,4.09,4.09H247.24a4.09,4.09,0,0,0,4.09-4.09V228.09A28.58,28.58,0,0,0,229.47,200.31Zm-18-75.64a8.4,8.4,0,0,1-1.71,1.32V111.86h0a8.35,8.35,0,0,1,1.66,1.24A8.19,8.19,0,0,1,211.45,124.67ZM111.82,126a8.18,8.18,0,0,1-4.09-7.08,8.07,8.07,0,0,1,1.77-5s.06,0,.07,0l.29-.37.29-.36a8.81,8.81,0,0,1,1.66-1.25h0Zm3.89-50.6c-.28.67-.54,1.34-.79,2-.41,1.15-.82,2.31-1.14,3.5-.19.68-.41,1.35-.55,2-.31,1.28-.54,2.56-.74,3.86-.1.61-.22,1.2-.3,1.81a50.15,50.15,0,0,0-.37,5.75v8.69c-.26.07-.49.21-.74.29a16.6,16.6,0,0,0-2.25.87c-.2.1-.41.14-.61.24a41.72,41.72,0,0,1,3.06-34.6l.34.34a40.5,40.5,0,0,0,4.18,3.56c.15.11.26.23.41.34C116,74.51,115.89,75,115.71,75.39Zm-1.15-14.81-.17-.22,0,0a32.28,32.28,0,0,1-6.12-15.24h52.85a49.83,49.83,0,0,1,20.17,4.21,50.46,50.46,0,0,1,29.94,48.62l-.27,5.11c-.27-.09-.56-.09-.83-.18a12.4,12.4,0,0,0-1.93-.36,5.8,5.8,0,0,0-.6-.13c-.23-.17-.45-.35-.67-.54s-.57-.52-.85-.82-.66-.72-1-1.11-.55-.66-.82-1-.64-.92-1-1.41-.51-.78-.76-1.2-.63-1.13-.94-1.72-.48-.88-.71-1.35c-.32-.65-.62-1.35-.93-2.05-.21-.48-.43-.95-.64-1.46-.31-.77-.61-1.59-.91-2.42-.18-.5-.37-1-.54-1.49-.33-1-.63-2-.94-3-.13-.44-.28-.86-.41-1.32-.43-1.49-.83-3-1.22-4.65a4.08,4.08,0,0,0-4-3.14H140.65a30.93,30.93,0,0,1-4.41-.31,33.25,33.25,0,0,1-18.61-9.19A33.93,33.93,0,0,1,114.56,60.58Zm5.92,68.27V94.61a41,41,0,0,1,.3-4.7c.06-.49.15-1,.22-1.45.17-1.09.36-2.16.62-3.23.12-.54.26-1.07.41-1.6.3-1.12.68-2.21,1.07-3.29.15-.41.28-.81.45-1.2.07-.2.18-.39.27-.59.17.09.35.14.52.22.48.21,1,.39,1.43.58,1.28.49,2.56,1,3.88,1.34.39.12.78.23,1.18.33,1.14.29,2.29.52,3.45.72.51.08,1,.19,1.54.25a38.53,38.53,0,0,0,5,.35h47.32c.33,1.23.69,2.52,1.08,3.8.13.41.27.82.41,1.22.28.88.56,1.76.87,2.64.18.5.38,1,.57,1.5.29.79.59,1.57.91,2.34.22.54.46,1,.7,1.58.32.73.64,1.45,1,2.16.27.53.55,1,.82,1.56.36.67.72,1.33,1.11,2,.3.5.61,1,.93,1.46s.82,1.21,1.24,1.79.68.89,1,1.31.92,1.06,1.4,1.56.74.76,1.13,1.11a7.5,7.5,0,0,0,.57.56v19.94a64.35,64.35,0,0,1-19.14,45.89l-.84.85c-.65.66-1.3,1.32-2,1.94a28.37,28.37,0,0,1-37.47,0c-.69-.62-1.34-1.28-2-1.94l-.87-.85A64.32,64.32,0,0,1,120.48,128.85Zm40.59,84.81,12.13,7.28-12.13,36.37L149,220.94ZM146.33,213l-1.58-4.75v-2.95l7.86,3.94Zm23.48-3.77,7.87-3.93v2.95L176.09,213Zm-9-5.13-18.27-11a4.07,4.07,0,0,0-2.1-.58v-6.19l0,0a36.36,36.36,0,0,0,40.24.27c.15-.09.31-.15.45-.25v6.19a4.1,4.1,0,0,0-2.1.58ZM78.89,228.44A20.65,20.65,0,0,1,80,221.69a20.21,20.21,0,0,1,14.09-13l21.15-3.78,18.13-3.23,23.43,70.27a4.09,4.09,0,0,0,3.53,2.8H78.89Zm82.29,46.28a4.75,4.75,0,0,0,1-.19,4.09,4.09,0,0,0,2.61-2.61l23.43-70.27,39.07,7a17.36,17.36,0,0,1,1.84.63c.47.16,1,.29,1.43.49s1.14.61,1.7.93a14.3,14.3,0,0,1,1.27.69c.53.36,1,.78,1.51,1.18s.77.56,1.12.89.87.93,1.3,1.4.66.67.95,1,.73,1.09,1.08,1.63c.25.38.52.74.74,1.13a18.76,18.76,0,0,1,.82,1.9c.16.41.38.75.51,1.16a21.41,21.41,0,0,1,.59,2.26c.07.34.2.67.26,1a21,21,0,0,1,.29,3.45v46.31Z"/></svg>