<svg id="Camada_1" class="icon-header" style="width: 80px" data-name="Camada 1" xmlns="http://www.w3.org/2000/svg" viewBox="0 0 303.41 303.41"><defs><style>.cls-1{fill:#d3b8bf;}</style></defs><title>ÍCONES</title><path class="cls-1" d="M251.58,185.17a59.7,59.7,0,0,0-59.81-39.91,60.21,60.21,0,0,0-46-39.06l18.52-18.52a3.31,3.31,0,0,0,0-4.69l-16.59-16.6a3.35,3.35,0,0,0-2.35-1H125.49a3.33,3.33,0,0,0-2.35,1L106.55,83a3.31,3.31,0,0,0,0,4.69l18.52,18.53a59.71,59.71,0,0,0,10.37,118.52c1.13,0,2.28-.11,3.42-.18a59.7,59.7,0,0,0,112.72-39.38Zm-112.82-81.3V88.65H154Zm10-27.12L154,82H143.45ZM144,72.06l-8.59,8.58-8.58-8.58Zm-21.86,4.69L127.43,82H116.9Zm-5.27,11.9h15.22v15.22ZM82.61,170.23a50.94,50.94,0,0,1-.27-5.24A53.11,53.11,0,0,1,185,146a60.18,60.18,0,0,0-6.53,1.55,1.76,1.76,0,0,1-.09-.2c-.19-.47-.42-.92-.62-1.38-.29-.64-.57-1.29-.89-1.91-.23-.47-.49-.92-.74-1.37s-.64-1.19-1-1.76-.57-.89-.86-1.33-.72-1.1-1.1-1.63-.63-.85-1-1.28-.79-1-1.2-1.51-.7-.81-1.05-1.2-.86-1-1.31-1.41-.76-.75-1.14-1.12-.93-.87-1.4-1.29-.8-.69-1.22-1-1-.8-1.5-1.18-.85-.63-1.28-.94-1-.72-1.59-1.06-.89-.57-1.35-.84-1.11-.64-1.66-.94-.92-.51-1.4-.74-1.17-.56-1.76-.82-1-.43-1.44-.63-1.23-.46-1.85-.68-1-.36-1.46-.51c-.65-.21-1.31-.38-2-.56-.49-.13-1-.28-1.46-.39-.7-.17-1.41-.29-2.12-.43-.46-.08-.92-.19-1.39-.26-.79-.13-1.6-.21-2.4-.29l-1.19-.14c-1.21-.09-2.43-.15-3.66-.15a46.47,46.47,0,0,0,0,92.93c1.26,0,2.51-.09,3.74-.19a46.19,46.19,0,0,0,14.13-3.38c1.07-.45,2.11-.93,3.13-1.45.3-.15.58-.33.87-.48.71-.38,1.42-.75,2.1-1.16l1.05-.67c.6-.38,1.2-.76,1.78-1.16.37-.26.71-.54,1.07-.81.54-.4,1.07-.8,1.59-1.22.36-.29.7-.61,1.06-.91s1-.85,1.44-1.29l1-1c.44-.45.89-.89,1.31-1.35s.64-.74,1-1.11.8-.92,1.18-1.41.6-.78.9-1.18.72-1,1.06-1.47.55-.84.81-1.26.64-1,.94-1.53.5-.88.74-1.32.56-1.05.82-1.58.44-.93.66-1.4.48-1.07.7-1.61.38-1,.56-1.46.39-1.1.57-1.66.32-1,.46-1.51.32-1.13.46-1.7.24-1,.35-1.55.23-1.15.34-1.73.18-1.06.25-1.6.13-1.17.19-1.76.1-1.08.14-1.63c0-.2,0-.4.05-.6a38.41,38.41,0,0,1,6.67-1.71c0,.62,0,1.24-.08,1.85s0,1.33-.1,2-.16,1.42-.25,2.13-.14,1.33-.25,2-.27,1.41-.42,2.11-.24,1.26-.39,1.89-.39,1.39-.59,2.08-.33,1.22-.52,1.82-.5,1.36-.75,2-.42,1.18-.66,1.76-.6,1.32-.91,2-.5,1.11-.77,1.66-.71,1.3-1.08,2-.56,1-.87,1.56-.82,1.26-1.24,1.89-.62,1-1,1.46c-.45.62-.93,1.22-1.4,1.82-.35.45-.68.92-1.05,1.36-.5.6-1,1.17-1.57,1.75-.37.41-.73.84-1.12,1.24-.56.58-1.15,1.12-1.74,1.66-.39.37-.77.76-1.17,1.12-.61.54-1.25,1-1.88,1.55-.42.33-.82.69-1.25,1-.66.51-1.36,1-2.05,1.44-.43.3-.84.61-1.28.9-.72.46-1.48.88-2.23,1.32-.43.26-.85.53-1.3.77-.82.44-1.66.84-2.52,1.24-.39.19-.78.4-1.18.58-1.27.56-2.56,1.07-3.88,1.54a52.88,52.88,0,0,1-70.44-44.82ZM172,149.68v0a59.78,59.78,0,0,0-36.71,55.09,39.83,39.83,0,1,1,0-79.65c1,0,2.09,0,3.12.13.33,0,.66.08,1,.11.69.07,1.39.14,2.07.25.39.06.79.15,1.18.22.61.11,1.22.23,1.82.37l1.23.33c.56.15,1.13.3,1.69.48s1,.36,1.52.53,1,.36,1.47.56.71.29,1.06.46c.51.22,1,.46,1.52.71s.8.4,1.19.61,1,.53,1.44.82.77.46,1.14.7.92.6,1.38.92,1,.72,1.48,1.09c.28.21.72.57,1,.79s.63.52.93.79.82.74,1.22,1.13.65.61,1,.93.77.81,1.14,1.23l.88,1c.36.44.71.89,1.06,1.33s.54.68.79,1,.67,1,1,1.48a11.38,11.38,0,0,1,.66,1c.34.55.64,1.12,1,1.68.18.34.38.67.55,1,.36.71.69,1.44,1,2.18C171.75,149.27,171.86,149.47,172,149.68Zm-16.21,49.57a39.63,39.63,0,0,1,19.13-28.68l0,.12a38.22,38.22,0,0,1-.77,3.89c-.07.3-.15.59-.23.89-.33,1.19-.69,2.36-1.12,3.5l-.11.33a38.26,38.26,0,0,1-1.6,3.58l-.43.83c-.61,1.16-1.27,2.29-2,3.38l0,0c-.73,1.08-1.52,2.11-2.35,3.12-.2.25-.4.49-.61.73a35.86,35.86,0,0,1-2.67,2.84l-.27.24q-1.34,1.24-2.79,2.37l-.73.56a39.51,39.51,0,0,1-3.3,2.21Zm33.62-8c.26-.73.59-1.48.92-2.23h0c.27-.61.55-1.22.79-1.84.31-.77.58-1.56.86-2.35.22-.61.45-1.23.67-1.86.25-.81.47-1.65.69-2.48.17-.61.35-1.22.5-1.85.21-.88.36-1.78.53-2.67.11-.59.24-1.17.33-1.76.16-1,.26-2,.36-3,0-.5.13-1,.17-1.49.12-1.52.19-3.05.19-4.6a39.83,39.83,0,0,1,0,79.65c-1,0-2.09,0-3.13-.12-.33,0-.66-.08-1-.12-.69-.07-1.38-.14-2.06-.25-.4-.06-.79-.15-1.19-.22-.61-.11-1.22-.22-1.81-.36-.42-.1-.83-.22-1.23-.34-.57-.15-1.14-.3-1.7-.48s-1.06-.37-1.59-.55-1-.35-1.42-.54-.69-.29-1-.46c-.51-.22-1-.45-1.52-.7s-.79-.41-1.18-.62-1-.53-1.45-.81-.76-.47-1.14-.71-.92-.6-1.37-.92-1-.71-1.49-1.09c-.28-.21-.72-.57-1-.79l-.93-.79c-.41-.36-.82-.74-1.22-1.12s-.64-.62-1-.94-.76-.81-1.14-1.22-.59-.67-.88-1-.71-.89-1.06-1.34-.54-.68-.79-1-.66-1-1-1.48a12.31,12.31,0,0,1-.67-1c-.33-.55-.64-1.12-.95-1.68-.18-.33-.37-.66-.54-1-.36-.71-.69-1.44-1-2.18-.09-.21-.19-.41-.28-.62v0l.53-.25,1.49-.67c.79-.39,1.8-.84,2.71-1.33.65-.33,1.28-.69,1.9-1s1.37-.79,2-1.21,1.2-.77,1.79-1.18,1.3-.89,1.93-1.35l1.69-1.29c.61-.5,1.22-1,1.82-1.51s1.05-.92,1.57-1.4,1.15-1.08,1.7-1.63l1.46-1.5c.54-.58,1.06-1.17,1.58-1.77s.89-1,1.32-1.58,1-1.25,1.46-1.89.81-1.1,1.2-1.66.89-1.33,1.33-2,.72-1.15,1.07-1.73.79-1.41,1.16-2.13S189.06,191.88,189.36,191.28Zm11.16,66.36a52.89,52.89,0,0,1-5.34.27,53.47,53.47,0,0,1-49.56-34.06c.55-.1,1.1-.23,1.66-.34l1.32-.27c.71-.16,1.42-.36,2.13-.55l1.25-.33.17-.05.09.2c.19.47.41.92.62,1.38.29.64.57,1.29.88,1.91.24.47.5.92.75,1.37s.64,1.19,1,1.76.57.89.85,1.33.72,1.1,1.11,1.64.63.85,1,1.27.79,1,1.2,1.52.7.8,1.06,1.19.86,1,1.3,1.41.76.75,1.14,1.12.93.87,1.41,1.29.8.69,1.21,1,1,.8,1.5,1.19.85.63,1.28.93,1.05.72,1.59,1.07l1.35.84c.55.33,1.11.63,1.66.94s.92.5,1.4.73,1.17.56,1.76.82,1,.43,1.44.63,1.23.47,1.85.69,1,.35,1.46.51c.65.21,1.31.38,2,.56.48.13,1,.28,1.45.39.7.17,1.41.29,2.12.43.46.08.92.19,1.39.26.79.13,1.6.21,2.4.29l1.19.14c1.21.09,2.42.14,3.65.14a46.46,46.46,0,0,0,0-92.92c-1.26,0-2.5.08-3.74.18a46.29,46.29,0,0,0-42.64,43.94,38.58,38.58,0,0,1-6.7,1.74,53.08,53.08,0,1,1,58.42,53.41Z"/></svg>