<svg id="Camada_1" style="width: 90px" data-name="Camada 1" xmlns="http://www.w3.org/2000/svg" viewBox="0 0 303.41 303.41"><defs><style>.cls-1{fill:#d3b8bf;}</style></defs><title>ÍCONES</title><path class="cls-1" d="M197.08,152.44V138.62l11-33a22,22,0,0,0-9.91-25.95c-.39-.22-.79-.35-1.19-.54a4.31,4.31,0,0,0,.1-.61V43a4.05,4.05,0,0,0-3.37-4.05,4,4,0,0,0-4.56,3.93V76.92a21.8,21.8,0,0,0-20.43,10.17L161.4,98.78l-7.32-11.71a21.78,21.78,0,0,0-20.43-10.15V43a4.05,4.05,0,0,0-3.38-4.05,4,4,0,0,0-4.55,3.93V78.37a3.14,3.14,0,0,0,.12.61c-.39.19-.81.32-1.19.54a22,22,0,0,0-9.91,26l11,33v14A168.72,168.72,0,0,0,94,251.22v21.41a4,4,0,0,0,4,4H224.83a4,4,0,0,0,4-4V251.22A168.72,168.72,0,0,0,197.08,152.44ZM122.23,103a14,14,0,0,1,25.13-11.82L158,108.22a4.12,4.12,0,0,0,6.74,0l10.68-17.09A14,14,0,0,1,200.56,103l-10.31,30.92H132.54Zm66.92,38.85v7.93h-55.5V141.8Zm31.72,111h-7.93v7.93h7.93v7.93H101.93v-7.93h7.93v-7.93h-7.93v-1.59a160.8,160.8,0,0,1,29.79-93.56H140c-3,8.83-5.72,17.79-8,26.79a4,4,0,1,0,7.69,1.93c2.42-9.65,5.35-19.28,8.63-28.72h9.05v27.63a4,4,0,0,0,3.37,4,4,4,0,0,0,4.55-3.92V157.66h9c3.28,9.44,6.22,19.07,8.64,28.72a4,4,0,0,0,3.84,3,4,4,0,0,0,1-.12,4,4,0,0,0,2.88-4.81c-2.26-9-5-18-8-26.79h8.33a160.88,160.88,0,0,1,29.8,93.56Z"/><rect class="cls-1" x="157.44" y="252.81" width="7.93" height="7.93"/><rect class="cls-1" x="125.72" y="252.81" width="7.93" height="7.93"/><rect class="cls-1" x="185.19" y="252.81" width="7.93" height="7.93"/></svg>