<svg id="Camada_1" style="width: 80px" data-name="Camada 1" xmlns="http://www.w3.org/2000/svg" viewBox="0 0 303.41 303.41"><defs><style>.cls-1{fill:#d3b8bf;}</style></defs><title>ÍCONES</title><metadata><?xpacket begin="﻿" id="W5M0MpCehiHzreSzNTczkc9d"?>
<x:xmpmeta xmlns:x="adobe:ns:meta/" x:xmptk="Adobe XMP Core 5.6-c143 79.161356, 2017/09/07-01:11:22        ">
   <rdf:RDF xmlns:rdf="http://www.w3.org/1999/02/22-rdf-syntax-ns#">
      <rdf:Description rdf:about=""
            xmlns:dc="http://purl.org/dc/elements/1.1/"
            xmlns:xmp="http://ns.adobe.com/xap/1.0/"
            xmlns:xmpMM="http://ns.adobe.com/xap/1.0/mm/"
            xmlns:stEvt="http://ns.adobe.com/xap/1.0/sType/ResourceEvent#">
         <dc:title>
            <rdf:Alt>
               <rdf:li xml:lang="x-default">ÍCONES</rdf:li>
            </rdf:Alt>
         </dc:title>
         <xmp:MetadataDate>2018-09-05T15:29:59-03:00</xmp:MetadataDate>
         <xmpMM:InstanceID>xmp.iid:411e61e7-5ec4-c040-882d-368a7a2df5f6</xmpMM:InstanceID>
         <xmpMM:DocumentID>xmp.did:c12560f8-ea6f-1f4f-984c-10d1a3bbcf26</xmpMM:DocumentID>
         <xmpMM:OriginalDocumentID>xmp.did:c12560f8-ea6f-1f4f-984c-10d1a3bbcf26</xmpMM:OriginalDocumentID>
         <xmpMM:History>
            <rdf:Seq>
               <rdf:li>
                  <rdf:Description>
                     <stEvt:action>saved</stEvt:action>
                     <stEvt:instanceID>xmp.iid:c12560f8-ea6f-1f4f-984c-10d1a3bbcf26</stEvt:instanceID>
                     <stEvt:when>2018-09-05T15:29:58-03:00</stEvt:when>
                     <stEvt:softwareAgent>Adobe Bridge CC 2018 (Windows)</stEvt:softwareAgent>
                     <stEvt:changed>/metadata</stEvt:changed>
                  </rdf:Description>
               </rdf:li>
               <rdf:li>
                  <rdf:Description>
                     <stEvt:action>saved</stEvt:action>
                     <stEvt:instanceID>xmp.iid:411e61e7-5ec4-c040-882d-368a7a2df5f6</stEvt:instanceID>
                     <stEvt:when>2018-09-05T15:29:59-03:00</stEvt:when>
                     <stEvt:softwareAgent>Adobe Bridge CC 2018 (Windows)</stEvt:softwareAgent>
                     <stEvt:changed>/metadata</stEvt:changed>
                  </rdf:Description>
               </rdf:li>
            </rdf:Seq>
         </xmpMM:History>
      </rdf:Description>
   </rdf:RDF>
</x:xmpmeta>
                                                                                                    
                                                                                                    
                                                                                                    
                                                                                                    
                                                                                                    
                                                                                                    
                                                                                                    
                                                                                                    
                                                                                                    
                                                                                                    
                                                                                                    
                                                                                                    
                                                                                                    
                                                                                                    
                                                                                                    
                                                          
<?xpacket end="w"?></metadata>
<path class="cls-1" d="M115.29,91A3.83,3.83,0,0,0,111,87.17a3.91,3.91,0,0,0-3.34,3.94V99a3.92,3.92,0,0,0,3.34,3.94,3.83,3.83,0,0,0,4.31-3.8Z"/><path class="cls-1" d="M203.35,53.35l-10.76-1.94a3.83,3.83,0,0,0-1.25-4.26,3.74,3.74,0,0,0-1.49-.71l-16.26-4.07A3.83,3.83,0,0,0,169,44.88L165.33,56l-13.07,9.8L139.19,56l-3.7-11.1a3.83,3.83,0,0,0-4.56-2.51l-16.26,4.07a3.74,3.74,0,0,0-1.49.71,3.83,3.83,0,0,0-1.25,4.26l-10.76,1.94a12,12,0,0,0-9.85,11.79v88.58a7.86,7.86,0,0,0,4.37,7.07l12,6v1.72a3.82,3.82,0,0,0,3.82,3.82h4.34V274.56a3.82,3.82,0,0,0,3.82,3.82H140a3.82,3.82,0,0,0,3.8-3.43l8.44-81.54L160.69,275a3.83,3.83,0,0,0,3.81,3.43h20.4a3.82,3.82,0,0,0,3.82-3.82V172.3h4.34a3.82,3.82,0,0,0,3.82-3.82v-1.72l12-6a7.91,7.91,0,0,0,4.37-7.07V62.33a8.86,8.86,0,0,0-9.85-9ZM150,73.62a3.81,3.81,0,0,0,4.59,0l6.53-4.89-4.29,12.86a3.84,3.84,0,0,0-.2,1.21v61.46h-8.67V82.8a3.83,3.83,0,0,0-.19-1.21l-4.29-12.86ZM99.11,154a.25.25,0,0,1-.14-.23v-7.61l8.67,4.34v7.76Zm12.35-42.33a3.82,3.82,0,0,0-3.82,3.82v26.45L99,137.56V65.17A4.28,4.28,0,0,1,102.49,61l12.76-2.3,3.92,7.84-3.1,6.21a3.89,3.89,0,0,0,1.52,5.18,3.77,3.77,0,0,0,5.15-1.64l4-8a3.83,3.83,0,0,0,0-3.4l-5.54-11.07a3.59,3.59,0,0,0-.27-.86l8-2,10.79,32.36V107.4L131.2,89.25a3.82,3.82,0,0,0-6.84,3.42l15.92,31.84v23.57c0,9.14-16.58,16.58-16.58,16.58h-8.41V115.44a3.83,3.83,0,0,0-3.83-3.82Zm69.61,159.11H168l-10-96.88a5.7,5.7,0,0,0-11.34,0l-10,97.39H123.45V172.3h.25a24.26,24.26,0,0,0,23.92-20.39h9.28a24.26,24.26,0,0,0,23.92,20.39h.25v98.43Zm8.16-106.07h-8.41a16.59,16.59,0,0,1-16.58-16.58V124.5l15.92-31.83a3.82,3.82,0,1,0-6.84-3.42l-9.08,18.15v-24l10.93-32.77,8.11,2a3.81,3.81,0,0,0-.27.87L177.4,64.77a3.81,3.81,0,0,0,0,3.42l4,8a3.93,3.93,0,0,0,4.76,2,3.83,3.83,0,0,0,2.15-5.32l-3.23-6.45,4-7.94L202,60.88a4.32,4.32,0,0,1,3.56,4.26v72.42l-8.67,4.33v-26.3a3.91,3.91,0,0,0-3.34-3.94,3.83,3.83,0,0,0-4.31,3.79v49.22ZM205.41,154l-8.53,4.26v-7.76l8.67-4.34v7.61A.24.24,0,0,1,205.41,154Z"/><path class="cls-1" d="M196.88,99V91.11a3.91,3.91,0,0,0-3.34-3.94A3.83,3.83,0,0,0,189.23,91v8.16a3.83,3.83,0,0,0,4.31,3.8A3.92,3.92,0,0,0,196.88,99Z"/></svg>