<svg id="Camada_1" style="width: 90" data-name="Camada 1" xmlns="http://www.w3.org/2000/svg" viewBox="0 0 303.41 303.41"><defs><style>.cls-1{fill:#d3b8bf;}</style></defs><title>ÍCONES</title><path class="cls-1" d="M185,231.83a7.13,7.13,0,0,0-6.16.48L160,243.18a10.35,10.35,0,0,0-7.09-2.82h-2.32a10.34,10.34,0,0,0-7.09,2.82l-18.71-10.8a7.36,7.36,0,0,0-4.91-.94,7.16,7.16,0,0,0-5.62,4.88,59.26,59.26,0,0,0-.07,36,7.38,7.38,0,0,0,3,4.06,7.28,7.28,0,0,0,3.86,1.12,7.15,7.15,0,0,0,3.58-1l18.84-10.87a10.35,10.35,0,0,0,7.09,2.81h2.32A10.35,10.35,0,0,0,160,265.7l18.84,10.87a7.15,7.15,0,0,0,3.58,1,7.13,7.13,0,0,0,6.88-5.17,59.39,59.39,0,0,0-.06-36A7.13,7.13,0,0,0,185,231.83Zm-62.4,34.5a49.27,49.27,0,0,1,0-24l17.51,10.11v3.83Zm30-7.52h-2.09a.66.66,0,0,1-.65-.66v-7.43a.65.65,0,0,1,.65-.65h2.09a.66.66,0,0,1,.66.65v7.43A.67.67,0,0,1,152.53,258.81Zm28.36,7.52-17.51-10.11v-3.83l17.51-10.11a49.27,49.27,0,0,1,0,24Z"/><path class="cls-1" d="M122.12,163.85v7.83a5,5,0,0,0,4.14,4.95,4.86,4.86,0,0,0,5.57-4.8V163.7a4.85,4.85,0,0,0-5.57-4.8A5,5,0,0,0,122.12,163.85Z"/><path class="cls-1" d="M171.63,163.85v7.83a5,5,0,0,0,4.13,4.95,4.86,4.86,0,0,0,5.58-4.8V163.7a4.85,4.85,0,0,0-5.58-4.8A4.94,4.94,0,0,0,171.63,163.85Z"/><path class="cls-1" d="M160.64,195a12.6,12.6,0,0,1-17.84,0,4.85,4.85,0,0,0-6.87,6.86,22.32,22.32,0,0,0,31.57,0,4.85,4.85,0,0,0-6.86-6.86Z"/><path class="cls-1" d="M225.75,175.55a22.63,22.63,0,0,0-8.15-17.48,38.72,38.72,0,0,0,5-19.06v-17.7a59.07,59.07,0,0,0-59.07-59.06H139.45a59.06,59.06,0,0,0-59.06,59.06V139a38.78,38.78,0,0,0,5,19.07,22.78,22.78,0,0,0,11.35,40,59,59,0,0,0,109.48,0A22.81,22.81,0,0,0,225.75,175.55ZM90.09,121.31A49.36,49.36,0,0,1,139.45,72h24.07a49.36,49.36,0,0,1,49.36,49.36V139a29.36,29.36,0,0,1-2.42,11.66v-9.75a5,5,0,0,0-.88-2.9,4.89,4.89,0,0,0-6-1.61,51.88,51.88,0,0,1-22.11,4.88,52.42,52.42,0,0,1-40.1-18.62A26.83,26.83,0,0,1,135,108.11c0-.24,0-.48-.07-.72a4.85,4.85,0,0,0-9.68.72,39.14,39.14,0,0,0,2.91,12,44.53,44.53,0,0,1-31,15.09,4.86,4.86,0,0,0-4.61,4.84v10.6A29.12,29.12,0,0,1,90.09,139Zm-2.67,54.33A13,13,0,0,1,91.67,166c.43.45.88.89,1.34,1.32v8.94A60.43,60.43,0,0,0,94,187,13.07,13.07,0,0,1,87.42,175.64Zm113.33.61a49.26,49.26,0,1,1-98.52,0V144.46a54.23,54.23,0,0,0,31.37-15.92,62.33,62.33,0,0,0,67.15,19.39ZM209.47,187a58.43,58.43,0,0,0,1-10.73v-8.94c.45-.43.9-.87,1.34-1.33a13.08,13.08,0,0,1-2.33,21Z"/></svg>