<svg id="Camada_1" class="icon-header" style="width: 80px" data-name="Camada 1" xmlns="http://www.w3.org/2000/svg" viewBox="0 0 303.41 303.41"><defs><style>.cls-1{fill:#d3b8bf;}</style></defs><title>ÍCONES</title><path class="cls-1" d="M265.75,200.78l-10.91,3.45a3.87,3.87,0,0,0-2.71,4.32,3.76,3.76,0,0,0,4.84,2.9L268,208a17.33,17.33,0,0,0,12.06-17.53c-.92-15.89-4.79-48.09-20.39-85.15-19.44-46.2-47.28-63.5-67.7-69.81a26.86,26.86,0,0,0-44.54,0C127,41.77,99.2,59.07,79.76,105.27c-15.6,37.06-19.47,69.26-20.39,85.15A17.32,17.32,0,0,0,71.43,208l10.83,3.43a3.86,3.86,0,0,0,4.69-2,3.75,3.75,0,0,0-2.28-5.16l-11-3.47a9.81,9.81,0,0,1-6.81-9.92c.89-15.41,4.64-46.65,19.8-82.68,16.37-38.9,38.72-56,56.75-63.3h0c-.09.4-.16.79-.23,1.19a1.85,1.85,0,0,1,0,.23c-.06.39-.11.79-.15,1.19l0,.2c0,.4-.07.79-.09,1.19a1.5,1.5,0,0,0,0,.22c0,.46,0,.93,0,1.4s0,1,0,1.44c0,.16,0,.32,0,.48s0,.56.07.84a67.32,67.32,0,0,0-39.16,48.06,1.74,1.74,0,0,0,0,.22c-.09.46-.18.91-.26,1.37q-.09.44-.15.87c-.1.55-.18,1.1-.26,1.66s-.13.92-.19,1.39c0,.3-.07.6-.1.9q-.1.92-.18,1.83c0,.16,0,.32,0,.48,0,.69-.09,1.39-.12,2.09,0,.2,0,.41,0,.62,0,.76,0,1.52,0,2.29v.7a6,6,0,0,0,0,.74,2,2,0,0,0,0,.24,4,4,0,0,0,.08.48,2.68,2.68,0,0,0,.07.27c0,.14.07.28.11.42s.07.19.11.28.1.26.15.39a1.17,1.17,0,0,1,0,.11l0,0c-.08.08-.16.15-.23.23l-.19.2-.21.25-.18.2-.2.27a1.56,1.56,0,0,0-.16.2l-.2.28-.15.21a2.9,2.9,0,0,0-.19.29l-.13.21c-.07.1-.12.21-.18.31l-.12.21-.17.32a2.26,2.26,0,0,1-.11.22l-.15.33-.1.22-.13.34-.09.23-.12.35c0,.07-.05.15-.08.23s-.06.23-.1.35l-.06.24-.09.35c0,.09,0,.17,0,.25s0,.25-.07.38,0,.15,0,.23,0,.28,0,.41l0,.22a3,3,0,0,0,0,.42,1.49,1.49,0,0,0,0,.21c0,.21,0,.42,0,.64v9.58a12.41,12.41,0,0,0,12.41,12.41H114c.06.26.14.51.21.77l.3,1a1.59,1.59,0,0,1,0,1.1,3.83,3.83,0,0,0,1.74,3.94.66.66,0,0,1,.2.31,57.88,57.88,0,0,0,30.65,30.76v5.95a3.63,3.63,0,0,1-2.92,3.57L138.73,198a2.09,2.09,0,0,0-.43.11l-35.62,10.5a43.81,43.81,0,0,0-31.41,42v23.81a6.14,6.14,0,0,0,6.14,6.14H260.19a8,8,0,0,0,8-8V250.65a43.82,43.82,0,0,0-31.4-42l-35.62-10.5a2.9,2.9,0,0,0-.42-.12l-5.6-1.12a4.75,4.75,0,0,1-3.81-4.66v-4.42a57.24,57.24,0,0,0,8.24-4.15l.22-.13c.31-.18.61-.37.91-.57l.46-.29.72-.48.78-.53.42-.3a58.24,58.24,0,0,0,19.59-24v0c.2-.46.4-.92.59-1.38l.09-.24c.17-.4.32-.8.47-1.21a3.42,3.42,0,0,0,.13-.34c.15-.4.29-.8.43-1.2,0-.11.08-.21.11-.31.16-.47.32-1,.46-1.42.08-.24.15-.48.22-.72s.2-.68.29-1h2.17a12.41,12.41,0,0,0,12.41-12.41V127.5c0-.22,0-.43,0-.64s0-.14,0-.21l0-.42,0-.22c0-.13,0-.27-.05-.41s0-.15,0-.23,0-.26-.07-.38l-.06-.25c0-.12-.05-.23-.08-.35l-.06-.24c0-.12-.07-.24-.11-.35s-.05-.16-.07-.23l-.12-.35-.09-.23c-.05-.11-.09-.23-.13-.34s-.07-.15-.11-.22-.09-.22-.14-.33l-.12-.22c-.05-.11-.1-.21-.16-.32l-.12-.21-.18-.31-.13-.21-.19-.29-.15-.21-.2-.28a1.56,1.56,0,0,0-.16-.2c-.07-.09-.13-.18-.21-.27s-.11-.13-.17-.2-.14-.17-.22-.25l-.18-.2-.23-.23,0,0a.76.76,0,0,0,0-.11c.06-.13.11-.26.16-.39a2.31,2.31,0,0,0,.1-.28,3.31,3.31,0,0,0,.12-.42,2.68,2.68,0,0,0,.07-.27,4,4,0,0,0,.08-.48c0-.08,0-.16,0-.24,0-.24,0-.49,0-.74V115c0-.77,0-1.53,0-2.29l0-.62c0-.7-.06-1.4-.12-2.09l0-.48c0-.62-.11-1.22-.18-1.83,0-.3-.07-.6-.1-.9-.06-.47-.12-.93-.19-1.39s-.17-1.11-.26-1.66l-.15-.87c-.08-.46-.17-.91-.26-1.37,0-.07,0-.15-.05-.22a67.39,67.39,0,0,0-39.16-48.06c0-.28.05-.56.07-.84s0-.32,0-.48c0-.48.05-1,.05-1.44s0-.94,0-1.41c0-.06,0-.13,0-.19,0-.41-.05-.81-.09-1.21l0-.18c0-.41-.09-.81-.16-1.21l0-.22c-.07-.4-.14-.8-.23-1.2h0c18,7.35,40.37,24.4,56.74,63.3,15.17,36,18.92,67.26,19.81,82.68A9.8,9.8,0,0,1,265.75,200.78ZM150.39,49.23c0-.1,0-.21,0-.32,0-.3.06-.61.1-.91l0-.29a20,20,0,0,1,.48-2.33c0-.1,0-.19.08-.28q.12-.43.27-.87c0-.1.07-.21.11-.31.12-.35.26-.7.4-1,0-.11.1-.21.14-.32l.33-.7.24-.47.3-.54a19.37,19.37,0,0,1,33.69,0l.3.54.24.47.33.72.14.29c.14.35.28.7.4,1.05,0,.1.07.2.11.31.09.29.19.58.27.88,0,.08,0,.17.08.26a20.62,20.62,0,0,1,.47,2.34,2.7,2.7,0,0,1,0,.28q.06.46.09.93l0,.31c0,.4,0,.8,0,1.19v.06l-.68-.19-.81-.22q-.85-.24-1.71-.45l-1.12-.27-1.05-.23-1.09-.22-.95-.18c-.62-.11-1.24-.22-1.87-.31l-.84-.12-1.38-.18-.77-.08c-.68-.08-1.36-.14-2-.19l-.52,0-1.73-.1-.63,0c-.73,0-1.46,0-2.19,0s-1.47,0-2.2,0l-.63,0-1.73.1-.52,0c-.68,0-1.36.11-2,.19l-.77.08-1.38.18-.84.12c-.63.09-1.25.19-1.86.31l-1,.18-1.09.22-1,.23c-.38.08-.76.18-1.13.27q-.86.21-1.71.45l-.81.22-.68.19v-.06C150.35,50,150.37,49.63,150.39,49.23ZM111.81,142h0a4.85,4.85,0,0,1-4.87-4.82v-9.4a4.87,4.87,0,0,1,4.87-4.87H112v11.32q0,.88,0,1.77c0,.12,0,.24,0,.36,0,.52,0,1.05.08,1.57,0,.11,0,.22,0,.33.08,1.22.21,2.43.37,3.62a.49.49,0,0,1,0,.12Zm-3.36,131.1V255.23a4.63,4.63,0,0,1,.87-2.71,31.66,31.66,0,0,1,49.86-1.41,14,14,0,0,0,21.6,0,31.66,31.66,0,0,1,49.86,1.41,4.63,4.63,0,0,1,.87,2.71v17.83Zm85.19-68.79,5.43,1.09,35.57,10.49a36.27,36.27,0,0,1,26,34.81v21.93a.47.47,0,0,1-.47.47H239.05V255.23a12.19,12.19,0,0,0-2.36-7.2A39.19,39.19,0,0,0,175,246.29a6.48,6.48,0,0,1-10,0A39.19,39.19,0,0,0,103.27,248a12.19,12.19,0,0,0-2.36,7.2v17.83H79.28a.47.47,0,0,1-.47-.47V251.1a36.91,36.91,0,0,1,5.81-20.16,36.07,36.07,0,0,1,20.2-15.09l35.58-10.49,4.4-.89a12.28,12.28,0,0,0,9.86-12v-2.34l0,0,.34.11c1.22.34,2.47.61,3.72.84l1,.19.92.15.82.12.82.12,1.56.18.6.05c.38,0,.76.07,1.14.09l.65,0c.39,0,.78,0,1.18.06l.56,0c.58,0,1.15,0,1.73,0l1.66,0,.54,0c.37,0,.74,0,1.1-.05l.65,0,1-.07.68-.06,1-.11.67-.07,1.18-.17,1.06-.16.84-.15L181,191l.67-.14.93-.2.57-.13.67-.16v1.87a10.86,10.86,0,0,0,.08,1.28,11.76,11.76,0,0,0,.66,2.9c.05.14.11.27.16.4s.15.38.24.57l.06.12A12.27,12.27,0,0,0,193.64,204.27ZM220,135.77a2.62,2.62,0,0,0,0,.28c0,.36,0,.72-.05,1.08a2.83,2.83,0,0,1,0,.29c0,.35,0,.71-.07,1.06,0,.1,0,.2,0,.3,0,.35-.06.7-.1,1,0,.12,0,.23,0,.34,0,.33-.07.66-.12,1,0,.14,0,.28-.05.41-.05.3-.09.59-.13.89l-.09.51c0,.25-.08.5-.13.75l-.12.63-.12.59-.15.71-.18.75c-.07.28-.13.55-.2.82l-.3,1.11c-.07.24-.14.49-.22.74s-.13.44-.2.65-.15.47-.22.7-.17.51-.26.76l-.2.57c-.16.45-.32.89-.5,1.32a1.67,1.67,0,0,1-.08.2c-.16.41-.33.82-.5,1.22,0,.09-.07.17-.11.25-.19.44-.39.88-.59,1.31v0a51.25,51.25,0,0,1-14.71,18.46l-.31.24-.8.6-.46.34c-.2.15-.42.3-.63.44-.42.3-.85.59-1.29.88l-.21.14-.93.58-.12.08a50.29,50.29,0,0,1-9.84,4.63l-1.24.41-.85.25-1,.29-1,.25-1.16.28-.65.14-1.58.31-.57.09c-.56.09-1.12.18-1.68.25l-.37.05c-.54.07-1.08.12-1.62.17l-.34,0-1.8.11h-.38c-.64,0-1.27,0-1.9,0s-1.36,0-2,0h-.34c-.63,0-1.26-.08-1.88-.13l-.48,0c-.6-.06-1.19-.12-1.79-.2l-.54-.08-1.49-.23-.78-.15-1.27-.26-.82-.18c-.45-.1-.9-.22-1.35-.34l-.89-.24-1.3-.39-1-.33-.59-.21a50,50,0,0,1-7.35-3.28l-.06,0c-.33-.18-.66-.36-1-.55l-.38-.22-.82-.5-1.13-.72-.11-.07a51.33,51.33,0,0,1-19.92-25.42l-.06-.17-.39-1.14c0-.15-.09-.3-.14-.45l-.27-.9c0-.18-.11-.36-.16-.54-.12-.41-.23-.83-.34-1.25,0-.23-.11-.46-.16-.69s-.12-.48-.17-.73-.11-.47-.16-.71l-.12-.59-.12-.63c0-.25-.09-.5-.13-.75s-.06-.34-.08-.51-.09-.59-.13-.89l-.06-.41-.12-1c0-.11,0-.22,0-.34,0-.34-.07-.69-.1-1,0-.1,0-.2,0-.3,0-.35,0-.71-.07-1.06a2.83,2.83,0,0,1,0-.29c0-.36,0-.72,0-1.08a2.62,2.62,0,0,0,0-.28c0-.45,0-.9,0-1.35V122.65h.07l.52-.14.2-.07.38-.13.22-.08.37-.16.19-.08c.15-.07.29-.15.43-.23l.11,0c.18-.1.35-.21.52-.32l.14-.1c.12-.08.24-.16.35-.25l.18-.13.31-.26.16-.14.33-.31a1.14,1.14,0,0,0,.11-.11c.15-.15.28-.3.42-.46l.07-.09.31-.39L125,119l.24-.35a1.18,1.18,0,0,0,.11-.19c.08-.12.15-.25.22-.37a1.62,1.62,0,0,1,.1-.18c.11-.22.22-.45.32-.68a3.22,3.22,0,0,0,.14-.44l4.55-17.22a4.69,4.69,0,0,1,.74-1.58,4.49,4.49,0,0,1,2.32-1.65,4.67,4.67,0,0,1,1.15-.22,4.57,4.57,0,0,1,3.2,1.1c.65.56,1.32,1.12,2,1.68l.51.43,1.67,1.35,1.1.87c.15.11.3.22.44.34a123,123,0,0,0,21,13.45l.09,0,1.33.63.7.34.77.34,1.25.57.16.06a65.9,65.9,0,0,0,19.42,5.32l.43,0,.92.08,1.45.09h.41c.59,0,1.16,0,1.71,0H220v11.55h0C220,134.87,220,135.32,220,135.77Zm12.57-8.09v9.46a4.85,4.85,0,0,1-4.87,4.82H227s0-.08,0-.12c.16-1.19.28-2.4.37-3.62,0-.12,0-.25,0-.38,0-.47.06-.94.08-1.42,0-.15,0-.31,0-.46,0-.59,0-1.18,0-1.77V122.87h.16A4.84,4.84,0,0,1,232.52,127.68ZM228.27,103a.43.43,0,0,1,0,.11c.09.41.17.83.24,1.25.05.24.09.47.13.71l.24,1.56c.06.39.11.79.16,1.19l.09.81c.06.54.11,1.07.15,1.61,0,.15,0,.3,0,.45,0,.62.08,1.23.11,1.85,0,.18,0,.37,0,.55,0,.68,0,1.36,0,2v.17h-36c-19.6,0-40.09-14.85-50.56-23.71-.25-.21-.51-.4-.77-.59l-.23-.16c-.21-.14-.42-.28-.64-.41l-.18-.11c-.28-.16-.56-.3-.84-.44l-.19-.08c-.23-.11-.46-.2-.7-.29l-.25-.1c-.28-.1-.56-.19-.84-.26l-.06,0a9.21,9.21,0,0,0-.91-.2l-.26,0-.72-.09-.24,0c-.31,0-.62,0-.93,0h-.25l-.59,0-.27,0-.56.06-.35,0-.57.12-.28,0-.84.23a12.08,12.08,0,0,0-8.07,8.46L119,114.49a1.72,1.72,0,0,1-1.48.84H110v-.17c0-.68,0-1.36,0-2,0-.18,0-.37,0-.55,0-.62.06-1.23.11-1.85l0-.45c0-.54.1-1.07.16-1.61l.09-.81c0-.4.1-.8.16-1.19s.15-1,.24-1.56l.12-.71.24-1.25,0-.1A59.94,59.94,0,0,1,162.05,55.8l.19,0,1.23-.14.32,0,1.1-.1.41,0,1-.07.45,0,1.05,0,.42,0h2.93l.43,0,1,0,.45,0,1,.07.4,0,1.11.1.32,0,1.22.14.2,0A60,60,0,0,1,228.27,103Z"/></svg>