<svg id="Camada_1" class="icon-header" style="width: 80px" data-name="Camada 1" xmlns="http://www.w3.org/2000/svg" viewBox="0 0 303.41 303.41"><defs><style>.cls-1{fill:#d3b8bf;}</style></defs><title>ÍCONES</title><path class="cls-1" d="M141.64,165.91A19.42,19.42,0,0,0,116.46,164a19.4,19.4,0,0,0-25.17,29.37l22.92,22.92a3.17,3.17,0,0,0,4.51,0l22.92-22.92a19.4,19.4,0,0,0,0-27.43Zm-4.52,22.92-20.66,20.66L95.8,188.83a13,13,0,0,1,18.41-18.41,3.17,3.17,0,0,0,4.51,0,13,13,0,1,1,18.4,18.41Z"/><path class="cls-1" d="M210.11,83.25H187.74c-.13-7.76-.86-16-3.88-22.34-3.76-7.84-10.68-11.82-20.57-11.82-7,0-16.61,1.94-25,5.07-6.46,2.4-14.68,6.39-19,12.21a19.49,19.49,0,0,0-2.76-.2,19.28,19.28,0,0,0-2.76.2c-4.36-5.82-12.58-9.81-19-12.21-8.41-3.13-18-5.07-25-5.07-9.88,0-16.8,4-20.57,11.82-3,6.29-3.74,14.58-3.88,22.34H22.82a3.19,3.19,0,0,0-3.19,3.2V124.9a3.19,3.19,0,0,0,3.19,3.2h5.31V244a3.19,3.19,0,0,0,3.2,3.19H201.61A3.19,3.19,0,0,0,204.8,244V137.65a3.29,3.29,0,0,0-6.57-.09V241H34.32V128.1H210.11a3.19,3.19,0,0,0,3.19-3.2V86.45A3.19,3.19,0,0,0,210.11,83.25ZM116.46,72.61a13.86,13.86,0,0,1,13.46,10.64H103A13.84,13.84,0,0,1,116.46,72.61Zm-20.29,49.3H25.81V89.83H96.17Zm.33-38.66H51.58c.12-7,.75-14.31,3.24-19.5,2.69-5.57,7.4-8.16,14.82-8.16,6.23,0,15.18,1.82,22.81,4.65,6.46,2.4,11.56,5.31,14.63,8.31A20.25,20.25,0,0,0,96.5,83.25Zm33.69,38.66H102.36V89.83h27.83Zm-4.36-53.37c7.65-7.57,26.65-13,37.46-13,7.42,0,12.13,2.59,14.82,8.16,2.49,5.19,3.12,12.52,3.24,19.5H136.43A20.27,20.27,0,0,0,125.83,68.54Zm81.29,53.37H136.76V89.83h70.36Z"/><path class="cls-1" d="M163.46,167.23a50.07,50.07,0,0,0-37.31-31.83h0a50.36,50.36,0,0,0-9.66-.93,50.08,50.08,0,0,0-49.66,43.6,3.21,3.21,0,0,0,2.76,3.58,3,3,0,0,0,.42,0,3.19,3.19,0,0,0,3.16-2.78,43.64,43.64,0,0,1,43.31-38h.24a42,42,0,0,1,7.93.76l.06,0h.21a43.7,43.7,0,0,1-8.47,86.59h0a43.7,43.7,0,0,1-43.23-37.46A3.21,3.21,0,0,0,70.06,188a3.54,3.54,0,0,0-.46,0,3.21,3.21,0,0,0-2.71,3.62,50.08,50.08,0,1,0,96.57-24.43Z"/></svg>