<svg id="Camada_1" data-name="Camada 1" xmlns="http://www.w3.org/2000/svg" viewBox="0 0 303.41 303.41"><defs><style>.cls-1{fill:#d3b8bf;}</style></defs><title>ÍCONES</title><path class="cls-1" d="M258,143.25A16.13,16.13,0,0,0,249,115.73L203,109a3.48,3.48,0,0,1-2.65-1.92L179.75,65.41a16.13,16.13,0,0,0-28.93,0l-20.58,41.71a3.48,3.48,0,0,1-2.65,1.92l-46,6.7a16.13,16.13,0,0,0-8.94,27.51l33.3,32.46a3.48,3.48,0,0,1,1,3.11l-7.86,45.84A16.16,16.16,0,0,0,115,243.54a16.23,16.23,0,0,0,7.53-1.87L163.65,220a3.5,3.5,0,0,1,3.27,0l41.17,21.64a16.09,16.09,0,0,0,17-1.23,16,16,0,0,0,6.41-15.78l-7.86-45.83a3.5,3.5,0,0,1,1-3.12ZM111.51,226.8,119.37,181a16.12,16.12,0,0,0-4.64-14.28l-33.3-32.46a3.53,3.53,0,0,1,1.94-6l46-6.69a16.08,16.08,0,0,0,12.14-8.82L162.13,71a3.52,3.52,0,0,1,6.31,0L189,112.7a16.12,16.12,0,0,0,12.14,8.82l46,6.69a3.53,3.53,0,0,1,1.95,6l-33.3,32.46A16.11,16.11,0,0,0,211.2,181l7.86,45.84a3.4,3.4,0,0,1-1.39,3.44,3.45,3.45,0,0,1-3.71.27l-41.17-21.65a16.11,16.11,0,0,0-15,0L116.63,230.5a3.52,3.52,0,0,1-5.12-3.7Z"/></svg>