<svg id="Camada_1" data-name="Camada 1" xmlns="http://www.w3.org/2000/svg" viewBox="0 0 303.41 303.41"><defs><style>.cls-1{fill:#4b5b69;}</style></defs><title>ÍCONES</title><path class="cls-1" d="M272.5,130.88c-4.57-.68-9.25-1.34-13.92-1.95a1.37,1.37,0,0,1-1.17-1,98.37,98.37,0,0,0-9.31-22.45,1.38,1.38,0,0,1,.13-1.53c2.88-3.74,5.73-7.51,8.47-11.23a12.78,12.78,0,0,0-1.25-16.54L240.11,60.86a12.78,12.78,0,0,0-16.54-1.25c-3.71,2.74-7.48,5.59-11.23,8.47a1.38,1.38,0,0,1-1.53.13,98.34,98.34,0,0,0-22.45-9.3,1.39,1.39,0,0,1-1-1.17c-.61-4.69-1.27-9.37-1.95-13.92A12.78,12.78,0,0,0,172.85,33H151.16a12.8,12.8,0,0,0-12.59,10.82c-.68,4.55-1.33,9.23-1.94,13.92a1.41,1.41,0,0,1-1,1.17,98.86,98.86,0,0,0-22.46,9.3,1.39,1.39,0,0,1-1.53-.13c-3.74-2.88-7.52-5.73-11.22-8.47a12.79,12.79,0,0,0-16.55,1.25L68.55,76.2A12.8,12.8,0,0,0,67.3,92.75c2.75,3.71,5.6,7.49,8.47,11.22a1.38,1.38,0,0,1,.13,1.53A99,99,0,0,0,66.6,128a1.37,1.37,0,0,1-1.17,1c-4.67.61-9.36,1.27-13.92,1.95a12.78,12.78,0,0,0-10.82,12.58v21.7a12.78,12.78,0,0,0,10.82,12.58c4.56.68,9.25,1.34,13.92,1.95a1.37,1.37,0,0,1,1.17,1,99,99,0,0,0,9.3,22.45,1.38,1.38,0,0,1-.13,1.53c-2.87,3.74-5.72,7.52-8.47,11.23a12.79,12.79,0,0,0,1.25,16.54l15.34,15.34A12.79,12.79,0,0,0,100.44,249c3.7-2.74,7.48-5.59,11.22-8.47a1.39,1.39,0,0,1,1.53-.13,98,98,0,0,0,22.46,9.3,1.41,1.41,0,0,1,1,1.17c.61,4.68,1.26,9.37,1.94,13.92a12.8,12.8,0,0,0,12.59,10.82h21.69a12.78,12.78,0,0,0,12.58-10.82c.68-4.56,1.34-9.24,1.95-13.92a1.38,1.38,0,0,1,1-1.17,98.79,98.79,0,0,0,22.45-9.3,1.38,1.38,0,0,1,1.53.13c3.75,2.88,7.52,5.73,11.23,8.47a12.78,12.78,0,0,0,16.54-1.25l15.34-15.34a12.79,12.79,0,0,0,1.25-16.55c-2.75-3.71-5.6-7.48-8.47-11.22a1.38,1.38,0,0,1-.13-1.53,98.44,98.44,0,0,0,9.31-22.46,1.36,1.36,0,0,1,1.17-1c4.67-.61,9.35-1.27,13.92-1.95a12.79,12.79,0,0,0,10.81-12.59V143.46A12.79,12.79,0,0,0,272.5,130.88ZM272,165.16a1.4,1.4,0,0,1-1.16,1.38c-4.49.67-9.1,1.31-13.71,1.91a12.7,12.7,0,0,0-10.63,9.21,87.1,87.1,0,0,1-8.23,19.87,12.69,12.69,0,0,0,1,14c2.83,3.68,5.64,7.4,8.34,11.05a1.39,1.39,0,0,1-.15,1.8L232.1,239.75a1.37,1.37,0,0,1-1.79.15c-3.65-2.7-7.37-5.5-11.06-8.34a12.67,12.67,0,0,0-14-1,87.36,87.36,0,0,1-19.87,8.23,12.67,12.67,0,0,0-9.2,10.63c-.61,4.61-1.25,9.22-1.92,13.71a1.39,1.39,0,0,1-1.38,1.16H151.16a1.39,1.39,0,0,1-1.38-1.16c-.67-4.49-1.32-9.1-1.92-13.71a12.68,12.68,0,0,0-9.2-10.63,87.18,87.18,0,0,1-19.87-8.23,12.66,12.66,0,0,0-14,1c-3.69,2.84-7.41,5.64-11.06,8.34a1.39,1.39,0,0,1-1.8-.15L76.57,224.41a1.38,1.38,0,0,1-.16-1.79c2.7-3.66,5.51-7.38,8.34-11.06a12.69,12.69,0,0,0,1-14,87.13,87.13,0,0,1-8.24-19.87,12.67,12.67,0,0,0-10.62-9.2c-4.61-.6-9.22-1.25-13.72-1.92A1.4,1.4,0,0,1,52,165.16V143.47a1.39,1.39,0,0,1,1.16-1.38c4.5-.67,9.11-1.32,13.71-1.92A12.7,12.7,0,0,0,77.52,131a86.76,86.76,0,0,1,8.24-19.87,12.71,12.71,0,0,0-1-14c-2.82-3.67-5.63-7.39-8.34-11a1.39,1.39,0,0,1,.16-1.8L91.9,68.87a1.4,1.4,0,0,1,1.8-.15c3.65,2.7,7.37,5.51,11,8.34a12.69,12.69,0,0,0,14,1,87.18,87.18,0,0,1,19.87-8.23,12.68,12.68,0,0,0,9.2-10.63c.6-4.61,1.25-9.22,1.92-13.71a1.39,1.39,0,0,1,1.38-1.16h21.69a1.39,1.39,0,0,1,1.38,1.16c.67,4.49,1.31,9.1,1.92,13.71a12.67,12.67,0,0,0,9.2,10.63,87.36,87.36,0,0,1,19.87,8.23,12.67,12.67,0,0,0,14-1c3.69-2.83,7.41-5.64,11.06-8.34a1.39,1.39,0,0,1,1.79.15l15.34,15.34a1.39,1.39,0,0,1,.15,1.8c-2.7,3.65-5.51,7.37-8.34,11a12.71,12.71,0,0,0-1,14A86.76,86.76,0,0,1,246.49,131a12.69,12.69,0,0,0,10.62,9.2c4.61.6,9.22,1.24,13.71,1.92a1.39,1.39,0,0,1,1.17,1.38v21.69Z"/><path class="cls-1" d="M162,101.65a52.66,52.66,0,1,0,52.67,52.66A52.72,52.72,0,0,0,162,101.65Zm0,94a41.33,41.33,0,1,1,41.34-41.33A41.38,41.38,0,0,1,162,195.64Z"/></svg>