<svg id="Camada_1" data-name="Camada 1" xmlns="http://www.w3.org/2000/svg" viewBox="0 0 303.41 303.41"><defs><style>.cls-1{fill:#4b5b69;}</style></defs><title>ÍCONES</title><path class="cls-1" d="M127,89.8H88.75V64.31a4.22,4.22,0,0,0-4.2-4.21,4.29,4.29,0,0,0-1.76.38L18.94,90a0,0,0,0,0,0,0,3.89,3.89,0,0,0-.42.25s0,0-.08,0a2.61,2.61,0,0,0-.42.34l-.09.09a2,2,0,0,0-.29.29l-.09.08a2.71,2.71,0,0,0-.29.43s0,0,0,.08A1.19,1.19,0,0,0,17,92s0,0,0,.09-.13.33-.21.5v-.17l-.42.47V93l.42.55v150.6a4.43,4.43,0,0,0,4.42,4.42h106a4.22,4.22,0,0,0,4.21-4.21V93.8A4.17,4.17,0,0,0,127,89.8ZM80.75,70.88V89.8H40.14Zm42.12,169.31H25.14v-142h97.73Z"/><path class="cls-1" d="M112.5,159.48c-2.36-12.09-11.16-19.93-22.49-19.93a30.11,30.11,0,0,0-16.14,5.22c-5.43-3.49-10.87-5.22-16.22-5.22-11.12,0-20.13,8-22.49,20-1.73,9.06.46,18.87,6.15,27.59,6.32,9.69,16.68,17.66,30,23a7.33,7.33,0,0,0,5.18,0C105.8,198.15,115.7,176.07,112.5,159.48ZM73.87,202.11c-24.47-10-32.94-27.72-30.41-40.87,1.6-8.17,7-13.22,14.19-13.22,4.34,0,8.93,1.81,13.74,5.35a4.23,4.23,0,0,0,5-.05C81,149.91,85.79,148,90,148c7.2,0,12.63,5,14.19,13.1C106.73,174.18,98.35,191.87,73.87,202.11Z"/><path class="cls-1" d="M199,222.5a4.9,4.9,0,1,0,7-6.9l-35.3-35.31H287.12a4.85,4.85,0,0,0,4.88-4.88,4.91,4.91,0,0,0-4.88-4.94H170.61l35.3-35.25a5,5,0,0,0,0-7,4.87,4.87,0,0,0-7,0l-43.67,43.67a4.79,4.79,0,0,0,0,6.89Z"/></svg>