<svg id="Camada_1" data-name="Camada 1" xmlns="http://www.w3.org/2000/svg" viewBox="0 0 303.41 303.41"><defs><style>.cls-1{fill:#4b5b69;}</style></defs><title>ÍCONES</title><path class="cls-1" d="M110.6299991607666,29.700000214576733 H72.3799991607666 V4.210000214576727 a4.22,4.22 0 0 0 -4.2,-4.21 a4.29,4.29 0 0 0 -1.7600000000000002,0.380000000000006 L2.569999160766603,29.90000021457672 a0,0 0 0 0 0,0 a3.89,3.89 0 0 0 -0.4200000000000003,0.25 s0,0 -0.08000000000000022,0 a2.6100000000000003,2.6100000000000003 0 0 0 -0.4200000000000003,0.3400000000000078 l-0.09000000000000233,0.09000000000000233 a2,2 0 0 0 -0.2900000000000003,0.2900000000000003 l-0.09000000000000233,0.08000000000000022 a2.71,2.71 0 0 0 -0.2900000000000003,0.4300000000000003 s0,0 0,0.08000000000000022 A1.19,1.19 0 0 0 0.6299991607666016,31.90000021457672 s0,0 0,0.09000000000000233 s-0.13,0.3300000000000068 -0.21000000000000021,0.5 v-0.17 l-0.4200000000000003,0.4700000000000003 V32.90000021457672 l0.4200000000000003,0.55 v150.6 a4.43,4.43 0 0 0 4.42,4.42 h106 a4.22,4.22 0 0 0 4.21,-4.21 V33.70000021457672 A4.17,4.17 0 0 0 110.6299991607666,29.700000214576733 zM64.3799991607666,10.780000214576717 V29.700000214576733 H23.769999160766602 zm42.12,169.31 H8.769999160766602 v-142 h97.73 z" id="svg_1"/><path class="cls-1" d="M96.1299991607666,99.38000021457671 c-2.36,-12.09 -11.16,-19.93 -22.49,-19.93 a30.11,30.11 0 0 0 -16.14,5.22 c-5.43,-3.49 -10.870000000000001,-5.22 -16.22,-5.22 c-11.12,0 -20.13,8 -22.49,20 c-1.73,9.06 0.46,18.87 6.15,27.59 c6.32,9.69 16.68,17.66 30,23 a7.33,7.33 0 0 0 5.18,0 C89.4299991607666,138.05000021457673 99.3299991607666,115.97000021457671 96.1299991607666,99.38000021457671 zM57.499999160766606,142.01000021457673 c-24.47,-10 -32.94,-27.72 -30.41,-40.87 c1.6,-8.17 7,-13.22 14.19,-13.22 c4.34,0 8.93,1.81 13.74,5.35 a4.23,4.23 0 0 0 5,-0.05000000000000061 C64.6299991607666,89.81000021457672 69.41999916076661,87.90000021457672 73.6299991607666,87.90000021457672 c7.2,0 12.63,5 14.19,13.1 C90.3599991607666,114.08000021457673 81.9799991607666,131.77000021457673 57.499999160766606,142.01000021457673 z" id="svg_2"/><path class="cls-1" d="M182.6299991607666,162.40000021457672 a4.9,4.9 0 1 0 7,-6.9 l-35.3,-35.31 H270.7499991607666 a4.85,4.85 0 0 0 4.88,-4.88 a4.91,4.91 0 0 0 -4.88,-4.94 H154.23999916076662 l35.3,-35.25 a5,5 0 0 0 0,-7 a4.87,4.87 0 0 0 -7,0 l-43.67,43.67 a4.79,4.79 0 0 0 0,6.8900000000000015 z" id="svg_3"/></svg>