<svg id="Camada_1" data-name="Camada 1" xmlns="http://www.w3.org/2000/svg" viewBox="0 0 303.41 303.41"><defs><style>.cls-1{fill:#4b5b69;}</style></defs><title>ÍCONES</title><path class="cls-1" d="M268.47,117.67a101.14,101.14,0,0,0-202.22,0A54.46,54.46,0,0,0,89,221.58h7.78V112.67H89a53.87,53.87,0,0,0-7,.45,85.58,85.58,0,0,1,170.61,0,53.65,53.65,0,0,0-7-.45H237.9V221.58h7.77a54.46,54.46,0,0,0,7.27-.48v16H206.26V221.58h-38.9a23.34,23.34,0,0,0,0,46.68h38.9V252.7H268.5V216.56a54.45,54.45,0,0,0,0-98.89ZM81.26,205.24a38.9,38.9,0,0,1,0-76.23ZM190.7,252.7H167.36a7.78,7.78,0,0,1,0-15.56H190.7Zm62.75-47.46V129a38.9,38.9,0,0,1,0,76.23Z"/><path class="cls-1" d="M224,119.59l-1.34-5.87,0-.13a57.44,57.44,0,1,0-68.12,71.8l13,13a8.52,8.52,0,0,0,14.54-6v-7.44c1.61-.42,3.21-.92,4.78-1.48l5.87-2.47.14-.06A57.32,57.32,0,0,0,224,119.59Zm-10.07,9.83a46.42,46.42,0,0,1-38.31,45.75,5.46,5.46,0,0,0-4.5,5.38v6l-10-10a5.41,5.41,0,0,0-2.79-1.49A46.55,46.55,0,0,1,162,83.18a51.54,51.54,0,0,1,5.39-.3,45.73,45.73,0,0,1,31,11.86A46.61,46.61,0,0,1,213.88,129.42Z"/><path class="cls-1" d="M167.36,161.25h0a4.06,4.06,0,0,0-4.06,4.06h0a4.06,4.06,0,0,0,4.06,4.06h0a4.06,4.06,0,0,0,4.06-4.06h0A4.06,4.06,0,0,0,167.36,161.25Z"/><path class="cls-1" d="M185.42,105.39a25.54,25.54,0,0,0-43.74,18.06,4.06,4.06,0,0,0,8.11,0,17.59,17.59,0,0,1,17.57-17.57,17.9,17.9,0,0,1,17.57,17.57,17.69,17.69,0,0,1-12.51,16.83,12.64,12.64,0,0,0-9.11,12.15v1.29a4.05,4.05,0,1,0,8.1,0v-1.29a4.58,4.58,0,0,1,3.33-4.38,25.85,25.85,0,0,0,18.3-24.6A25.46,25.46,0,0,0,185.42,105.39Z"/></svg>