<svg id="Camada_1" data-name="Camada 1" xmlns="http://www.w3.org/2000/svg" viewBox="0 0 303.41 303.41"><defs><style>.cls-1{fill:gray;}</style></defs><title>ÍCONES</title><path class="cls-1" d="M165.55,53.13H67.61a5.47,5.47,0,0,0-5.48,5.47v97.94A5.48,5.48,0,0,0,67.61,162h97.94a5.47,5.47,0,0,0,5.47-5.48V58.6A5.47,5.47,0,0,0,165.55,53.13ZM89.89,95.77a9.73,9.73,0,1,1,9.72,9.73A9.73,9.73,0,0,1,89.89,95.77Zm55.41,55.3h-23V135.5a11.64,11.64,0,0,1,3.37-8.22,11.31,11.31,0,0,1,8.71-3.39c6,.3,10.9,5.77,10.9,11.79v15.39ZM133.81,113.2a9.73,9.73,0,1,1,9.72-9.72A9.73,9.73,0,0,1,133.81,113.2Zm-23,14.76v23.11h-23V127.8a11.56,11.56,0,0,1,12.55-11.58A11.69,11.69,0,0,1,110.83,128Zm49.25,23.11h-3.83V135.5A22.52,22.52,0,0,0,148,118.08a20.65,20.65,0,1,0-29-29.4,20.66,20.66,0,1,0-33.84,21.69,22.53,22.53,0,0,0-8.24,17.43v23.27H73.08v-87h87v87Z"/><path class="cls-1" d="M263.49,102.37H227.93V81a5.47,5.47,0,0,0-5.48-5.47H188V41.09a5.47,5.47,0,0,0-5.47-5.47H50.64a5.47,5.47,0,0,0-5.47,5.47v154.3a5.46,5.46,0,0,0,5.47,5.47H85.11v34.48a5.47,5.47,0,0,0,5.48,5.47h35.56v21.34a5.47,5.47,0,0,0,5.47,5.47H263.49a5.47,5.47,0,0,0,5.47-5.47V107.85A5.47,5.47,0,0,0,263.49,102.37ZM217,86.51v15.86H188V86.51ZM154.06,200.86H182.5l.42,0,10.71,10.66a5.49,5.49,0,0,0,7.75,0l28.24-28.1a25.23,25.23,0,0,0,1.49-34.22,25.6,25.6,0,0,0-33.62-4.76,25.79,25.79,0,0,0-9.51-3.83v-9.22h53.08v87h-87V200.86ZM188,151.62a14.5,14.5,0,0,1,5.64,3.49,5.47,5.47,0,0,0,7.74,0,14.45,14.45,0,0,1,12.92-4,13.92,13.92,0,0,1,5.52,2.29,14.49,14.49,0,0,1,2,22.19l-24.34,24.34L188,190.42v-38.8ZM56.11,46.56H177V189.92H56.11Zm40,183.3v-29h30.09v29Zm162.51,26.82H137.1V200.86h6v23a5.47,5.47,0,0,0,5.48,5.47h97.94a5.47,5.47,0,0,0,5.47-5.47V125.9a5.47,5.47,0,0,0-5.47-5.47h-58v-7.11h70V256.68Z"/></svg>