<svg id="Camada_1" data-name="Camada 1" xmlns="http://www.w3.org/2000/svg" viewBox="0 0 303.41 303.41"><defs><style>.cls-1{fill:#4b5b69;}</style></defs><title>ÍCONES</title><path class="cls-1" d="M215.22,30.62H195.31a14.94,14.94,0,0,0-14.94,14.93v59.74a5,5,0,0,1-5,5H115.65a5,5,0,0,1-5-5V45.55A14.93,14.93,0,0,0,95.74,30.62H75.83A14.94,14.94,0,0,0,60.89,45.55V244.68a14.94,14.94,0,0,0,14.94,14.94H215.22a14.93,14.93,0,0,0,14.93-14.94V45.55A14.93,14.93,0,0,0,215.22,30.62Zm5,189.17H195.46a5.09,5.09,0,0,0-5.08,4.24,5,5,0,0,0,4.93,5.72H220.2v14.93a5,5,0,0,1-5,5H75.83a5,5,0,0,1-5-5V229.75h94.43a5.09,5.09,0,0,0,5.08-4.24,5,5,0,0,0-4.92-5.72H70.85V45.55a5,5,0,0,1,5-5H95.74a5,5,0,0,1,5,5v59.74a14.93,14.93,0,0,0,14.93,14.94h59.74a14.94,14.94,0,0,0,14.94-14.94V45.55a5,5,0,0,1,5-5h19.91a5,5,0,0,1,5,5Z"/></svg>