<svg id="Camada_1" data-name="Camada 1" xmlns="http://www.w3.org/2000/svg" viewBox="0 0 303.41 303.41"><defs><style>.cls-1{fill:#4b5b69;}</style></defs><title>ÍCONES</title><path class="cls-1" d="M256.14,239.85l-2.72-50.6a4.15,4.15,0,0,0-4.15-3.94h-6.62v-4.86A14.44,14.44,0,0,0,233,166.84a14.8,14.8,0,0,0-1-9.77L204.89,99.53A28.79,28.79,0,0,0,179,83.05h-1.69a30.77,30.77,0,1,0-42.07,0H133.5a28.79,28.79,0,0,0-25.94,16.48L80.5,157.07a14.71,14.71,0,0,0-1,9.78,14.42,14.42,0,0,0-9.69,13.6v5.42H62.72a4.2,4.2,0,0,0-4.23,3.94L55.72,240.4A4.16,4.16,0,0,0,60,244.78h48.28a4.16,4.16,0,0,0,4.23-4.38l-2.77-50.59a4.2,4.2,0,0,0-4.23-3.94H98.7v-5.39a13.54,13.54,0,0,0-.32-2.92,15.41,15.41,0,0,0,9.37-8l13.74-28.64V254.56a14.94,14.94,0,0,0,14.3,15.05,14.73,14.73,0,0,0,15.15-14.72V185.53a5.67,5.67,0,0,1,4.73-5.68,5.57,5.57,0,0,1,6.39,5.49v69.3a14.8,14.8,0,0,0,14.19,15h.55a14.59,14.59,0,0,0,10.14-4.06,15.17,15.17,0,0,0,4.58-11V140.39L205,169.25a14.7,14.7,0,0,0,9,7.84,14.08,14.08,0,0,0-.29,2.83v5.39h-6.6a4.15,4.15,0,0,0-4.13,3.94l-2.7,50.6a4.16,4.16,0,0,0,2.91,4.2,4.07,4.07,0,0,0,1.25.18H252a4.3,4.3,0,0,0,1.23-.17A4.19,4.19,0,0,0,256.14,239.85ZM133.93,60.54a22.4,22.4,0,1,1,22.4,22.4A22.43,22.43,0,0,1,133.93,60.54ZM103.62,235.89H65.1l2.26-42.24h34ZM78.14,185.31v-5.4a6.07,6.07,0,0,1,5.89-6,15.1,15.1,0,0,0,4.19,2.64,11.86,11.86,0,0,0,1.41.51,5.83,5.83,0,0,1,.74,2.87v5.4ZM212.23,166,191,120.16a4.17,4.17,0,0,0-7.18-.64,2.85,2.85,0,0,0-.64,1.8V255.48a4.24,4.24,0,0,1-.27,1.54,6.52,6.52,0,0,1-6.36,4.42,6.63,6.63,0,0,1-6.15-6.74V185.64c0-7.1-5.76-13.62-12.84-14.15a13.9,13.9,0,0,0-14.95,13.85v69.49a6.54,6.54,0,0,1-5.81,6.59,6.44,6.44,0,0,1-7-6.46V122.07a4.29,4.29,0,0,0-2.35-3.9,4.09,4.09,0,0,0-5.48,2l-21.12,45.58a6.54,6.54,0,0,1-8.4,3.44,6.47,6.47,0,0,1-3.76-4.69,6.72,6.72,0,0,1,.54-4.16L115.84,103a20.06,20.06,0,0,1,18.1-11.65h45.13A20.07,20.07,0,0,1,197.17,103l26.63,57.41a6.51,6.51,0,0,1,.23,5,6.43,6.43,0,0,1-3.29,3.67A6.36,6.36,0,0,1,212.23,166Zm9.85,13.79a6.13,6.13,0,0,1,.74-2.95,15.18,15.18,0,0,0,5.6-3.23,6.15,6.15,0,0,1,5.89,6.18v5.55H222.08v-5.55Zm-13,56.13,2.27-42.24h34l2.26,42.24Z"/></svg>