<svg xmlns:dc="http://purl.org/dc/elements/1.1/" xmlns:cc="http://creativecommons.org/ns#" xmlns:rdf="http://www.w3.org/1999/02/22-rdf-syntax-ns#" xmlns:svg="http://www.w3.org/2000/svg" xmlns="http://www.w3.org/2000/svg" xmlns:sodipodi="http://sodipodi.sourceforge.net/DTD/sodipodi-0.dtd" xmlns:inkscape="http://www.inkscape.org/namespaces/inkscape" data-name="Camada 1" version="1.1" sodipodi:docname="icon-pagem.svg" inkscape:version="0.92.1 r15371" width="154.10526305222447" height="223.05263152611224" style=""><rect id="backgroundrect" width="100%" height="100%" x="0" y="0" fill="none" stroke="none" class="" style=""/>
  <metadata id="metadata21">
    <rdf:RDF>
      <cc:Work rdf:about="">
        <dc:format>image/svg+xml</dc:format>
        <dc:type rdf:resource="http://purl.org/dc/dcmitype/StillImage"/>
        <dc:title>icones</dc:title>
      </cc:Work>
    </rdf:RDF>
  </metadata>
  <sodipodi:namedview pagecolor="#ffffff" bordercolor="#666666" borderopacity="1" objecttolerance="10" gridtolerance="10" guidetolerance="10" inkscape:pageopacity="0" inkscape:pageshadow="2" inkscape:window-width="1920" inkscape:window-height="1017" id="namedview19" showgrid="false" inkscape:snap-global="true" inkscape:zoom="0.77782538" inkscape:cx="151.705" inkscape:cy="151.705" inkscape:window-x="-8" inkscape:window-y="-8" inkscape:window-maximized="1" inkscape:current-layer="Camada_1"/>
  <defs id="defs4">
    <style id="style2"></style>
  </defs>
  <title id="title6">icones</title>
  
<g class="currentLayer" style=""><title>Layer 1</title><path d="M64.7123807055664,4.355266571044922 A59.06,59.06 0 0 0 5.653785705566406,63.41581657104493 L5.653785705566406,81.10526657104492 A38.78,38.78 0 0 0 10.653785705566406,100.17557657104493 A22.78,22.78 0 0 0 22.003394705566407,140.17557657104493 A59,59 0 0 0 131.4838607055664,140.17557657104493 A22.81,22.81 0 0 0 151.0131607055664,117.65604657104493 A22.63,22.63 0 0 0 142.86277070556642,100.17557657104493 A38.72,38.72 0 0 0 147.86277070556642,81.11503657104493 L147.86277070556642,63.41581657104493 A59.07,59.07 0 0 0 88.79246070556641,4.355266571044922 L64.7123807055664,4.355266571044922 zM64.7123807055664,14.105266571044922 L88.78269070556641,14.105266571044922 A49.36,49.36 0 0 1 138.14402070556642,63.46464657104492 L138.14402070556642,81.10526657104492 A29.36,29.36 0 0 1 135.7241007055664,92.76542657104491 L135.7241007055664,83.01542657104491 A5,5 0 0 0 134.84324070556642,80.11503657104493 A4.890000000000001,4.890000000000001 0 0 0 128.84324070556642,78.50565657104491 A51.88,51.88 0 0 1 106.7338607055664,83.38456657104493 A52.42,52.42 0 0 1 66.6323007055664,64.76542657104493 A26.83,26.83 0 0 1 60.263160705566406,50.21464657104492 C60.263160705566406,49.97464657104493 60.26285070556639,49.73589657104492 60.1928507055664,49.49588657104492 A4.85337,4.85337 0 0 0 50.513160705566406,50.21464657104492 A39.14,39.14 0 0 0 53.4233207055664,62.21464657104492 A44.53,44.53 0 0 1 22.423316705566407,77.30448657104492 A4.86,4.86 0 0 0 17.813941705566407,82.14432657104493 L17.813941705566407,92.74588657104493 A29.12,29.12 0 0 1 15.353004705566406,81.10526657104492 L15.353004705566406,63.41581657104493 A49.36,49.36 0 0 1 64.7123807055664,14.105266571044922 zM58.86277070556642,70.64432657104493 A62.33,62.33 0 0 0 126.0131607055664,90.03495657104492 L126.0131607055664,118.35526657104492 A49.26,49.26 0 0 1 27.493630705566403,118.35526657104492 L27.493630705566403,86.56620657104492 A54.23,54.23 0 0 0 58.86277070556642,70.64432657104493 zM101.61668070556641,100.95096657104492 A4.85,4.85 0 0 0 101.02293070556641,101.00565657104491 A4.94,4.94 0 0 0 96.89402070556642,105.95487657104493 L96.89402070556642,113.78495657104492 A5,5 0 0 0 101.02293070556641,118.73612657104493 A4.86,4.86 0 0 0 106.60300070556642,113.93534657104493 L106.60300070556642,105.80448657104492 A4.85,4.85 0 0 0 101.61668070556641,100.95096657104492 zM52.10496070556641,100.95292657104491 A4.85,4.85 0 0 0 51.52293070556641,101.00565657104491 A5,5 0 0 0 47.38230070556641,105.95487657104493 L47.38230070556641,113.78495657104492 A5,5 0 0 0 51.52293070556641,118.73612657104493 A4.86,4.86 0 0 0 57.093240705566416,113.93534657104493 L57.093240705566416,105.80448657104492 A4.85,4.85 0 0 0 52.10496070556641,100.95292657104491 zM16.933082705566406,108.10526657104492 C17.363082705566413,108.55526657104491 17.81292670556641,108.99557657104492 18.272926705566405,109.42557657104493 L18.272926705566405,118.36503657104493 A60.43,60.43 0 0 0 19.263160705566406,129.10526657104492 A13.07,13.07 0 0 1 12.683082705566406,117.74588657104493 A13,13 0 0 1 16.933082705566406,108.10526657104492 zM137.0737107055664,108.10526657104492 A13.08,13.08 0 0 1 134.7436307055664,129.10526657104492 L134.7338607055664,129.10526657104492 A58.43,58.43 0 0 0 135.7338607055664,118.37479657104493 L135.7338607055664,109.43534657104493 C136.18386070556642,109.00534657104492 136.63371070556641,108.56526657104493 137.0737107055664,108.10526657104492 zM64.5600407055664,135.6814365710449 A4.8542893,4.8542893 0 0 0 61.1928507055664,143.9646465710449 A22.32,22.32 0 0 0 92.7631607055664,143.9646465710449 A4.8507525000000005,4.8507525000000005 0 0 0 85.90378070556642,137.10526657104492 A12.6,12.6 0 0 1 68.06394070556641,137.10526657104492 A4.8542893,4.8542893 0 0 0 64.5600407055664,135.6814365710449 zM107.47019070556641,173.45487657104493 A7.13,7.13 0 0 0 104.10300070556642,174.41581657104493 L85.2631607055664,185.28495657104492 A10.35,10.35 0 0 0 78.1733207055664,182.4646465710449 L75.85300070556642,182.4646465710449 A10.34,10.34 0 0 0 68.7631607055664,185.28495657104492 L50.05222070556641,174.48612657104493 A7.36,7.36 0 0 0 45.144020705566405,173.54471657104492 A7.16,7.16 0 0 0 39.52293070556641,178.42557657104493 A59.26,59.26 0 0 0 39.4526107055664,214.42557657104493 A7.38,7.38 0 0 0 42.4526107055664,218.4861265710449 A7.28,7.28 0 0 0 46.31394070556641,219.60526657104492 A7.15,7.15 0 0 0 49.894020705566405,218.60526657104492 L68.7338607055664,207.7361265710449 A10.35,10.35 0 0 0 75.82371070556641,210.54471657104494 L78.14402070556642,210.54471657104494 A10.35,10.35 0 0 0 85.2631607055664,207.80448657104495 L104.10300070556642,218.67557657104493 A7.15,7.15 0 0 0 107.6830807055664,219.67557657104493 A7.13,7.13 0 0 0 114.56394070556641,214.50565657104494 A59.39,59.39 0 0 0 114.5033907055664,178.5056565710449 A7.13,7.13 0 0 0 110.2631607055664,173.93534657104493 A7.13,7.13 0 0 0 107.47019070556641,173.45487657104493 zM106.2241007055664,184.38456657104493 A49.27,49.27 0 0 1 106.2241007055664,208.3845665710449 L106.2241007055664,208.43534657104493 L88.7123807055664,198.32596657104494 L88.7123807055664,194.49588657104493 L106.2241007055664,184.38456657104493 zM47.862770705566405,184.43534657104493 L65.3725407055664,194.54471657104492 L65.3725407055664,198.3747965710449 L47.862770705566405,208.43534657104493 A49.27,49.27 0 0 1 47.862770705566405,184.43534657104493 zM75.77293070556641,192.17557657104493 L77.86277070556642,192.17557657104493 A0.6600000000000001,0.6600000000000001 0 0 1 78.52293070556641,192.82596657104492 L78.52293070556641,200.25565657104494 A0.6700000000000002,0.6700000000000002 0 0 1 77.79246070556641,200.9158165710449 L75.77293070556641,200.9158165710449 A0.6600000000000001,0.6600000000000001 0 0 1 75.1225407055664,200.25565657104494 L75.1225407055664,192.82596657104492 A0.6500000000000001,0.6500000000000001 0 0 1 75.77293070556641,192.17557657104493 z" id="path8" class=""/></g></svg>